# MagicaVoxel @ Ephtracy

# group
o 

# material
mtllib 001_a.mtl
usemtl palette

# normals
vn -1 0 0
vn 1 0 0
vn 0 0 1
vn 0 0 -1
vn 0 -1 0
vn 0 1 0

# texcoords
vt 0.615234 0.5
vt 0.619141 0.5
vt 0.623047 0.5
vt 0.634766 0.5
vt 0.638672 0.5
vt 0.642578 0.5

# verts
v 0 2 0
v 0 2 -0.2
v 0 2 -0.5
v 0 2 -0.6
v 0 2 -0.8
v 0 2 -1
v 0 2.1 0
v 0 2.1 -0.1
v 0 2.1 -0.2
v 0 2.1 -0.5
v 0 2.1 -0.6
v 0 2.1 -0.8
v 0 2.1 -1
v 0 2.9 0
v 0 2.9 -0.1
v 0 3 0
v 0 3 -0.1
v 1 2 0
v 1 2 -0.2
v 1 2 -0.5
v 1 2 -0.6
v 1 2 -0.8
v 1 2 -1
v 1 2.1 0
v 1 2.1 -0.1
v 1 2.1 -0.2
v 1 2.1 -0.5
v 1 2.1 -0.6
v 1 2.1 -0.8
v 1 2.1 -1
v 1 2.2 0
v 1 2.2 -0.1
v 1 2.3 0
v 1 2.3 -0.1
v 1 2.9 0
v 1 2.9 -0.1
v 1 3 0
v 1 3 -0.1
v 0 2 0
v 0 2.1 0
v 0 2.9 0
v 0 3 0
v 0.1 2.2 0
v 0.1 2.3 0
v 0.1 2.5 0
v 0.1 2.6 0
v 0.1 2.8 0
v 0.1 2.9 0
v 0.2 2 0
v 0.2 2.1 0
v 0.2 2.8 0
v 0.2 2.9 0
v 0.3 2.2 0
v 0.3 2.3 0
v 0.3 2.5 0
v 0.3 2.6 0
v 0.4 2.9 0
v 0.4 3 0
v 0.5 2.3 0
v 0.5 2.4 0
v 0.5 2.9 0
v 0.5 3 0
v 0.7 2.3 0
v 0.7 2.4 0
v 0.7 2.8 0
v 0.7 2.9 0
v 0.8 2 0
v 0.8 2.1 0
v 0.8 2.2 0
v 0.8 2.3 0
v 0.9 2.8 0
v 0.9 2.9 0
v 1 2 0
v 1 2.1 0
v 1 2.2 0
v 1 2.3 0
v 1 2.9 0
v 1 3 0
v 0 2.1 -0.1
v 0 2.9 -0.1
v 0 3 -0.1
v 0.1 2.1 -0.1
v 0.1 2.2 -0.1
v 0.1 2.3 -0.1
v 0.1 2.5 -0.1
v 0.1 2.6 -0.1
v 0.1 2.8 -0.1
v 0.1 2.9 -0.1
v 0.2 2.8 -0.1
v 0.2 2.9 -0.1
v 0.3 2.1 -0.1
v 0.3 2.2 -0.1
v 0.3 2.3 -0.1
v 0.3 2.5 -0.1
v 0.3 2.6 -0.1
v 0.4 2.9 -0.1
v 0.4 3 -0.1
v 0.5 2.3 -0.1
v 0.5 2.4 -0.1
v 0.5 2.9 -0.1
v 0.5 3 -0.1
v 0.7 2.1 -0.1
v 0.7 2.3 -0.1
v 0.7 2.4 -0.1
v 0.7 2.8 -0.1
v 0.7 2.9 -0.1
v 0.8 2.2 -0.1
v 0.8 2.3 -0.1
v 0.9 2.1 -0.1
v 0.9 2.8 -0.1
v 0.9 2.9 -0.1
v 1 2.1 -0.1
v 1 2.2 -0.1
v 1 2.3 -0.1
v 1 2.9 -0.1
v 1 3 -0.1
v 0 2 -1
v 0 2.1 -1
v 0.2 2 -1
v 0.2 2.1 -1
v 0.8 2 -1
v 0.8 2.1 -1
v 1 2 -1
v 1 2.1 -1
v 0 2 0
v 0.2 2 0
v 0.8 2 0
v 1 2 0
v 0.1 2 -0.1
v 0.2 2 -0.1
v 0.3 2 -0.1
v 0.7 2 -0.1
v 0.8 2 -0.1
v 0.9 2 -0.1
v 0 2 -0.2
v 0.1 2 -0.2
v 0.2 2 -0.2
v 0.3 2 -0.2
v 0.7 2 -0.2
v 0.8 2 -0.2
v 0.9 2 -0.2
v 1 2 -0.2
v 0.1 2 -0.3
v 0.2 2 -0.3
v 0.3 2 -0.3
v 0.4 2 -0.3
v 0.6 2 -0.3
v 0.7 2 -0.3
v 0.8 2 -0.3
v 0.9 2 -0.3
v 0.3 2 -0.4
v 0.4 2 -0.4
v 0.6 2 -0.4
v 0.7 2 -0.4
v 0 2 -0.5
v 0.1 2 -0.5
v 0.9 2 -0.5
v 1 2 -0.5
v 0 2 -0.6
v 0.1 2 -0.6
v 0.3 2 -0.6
v 0.4 2 -0.6
v 0.6 2 -0.6
v 0.7 2 -0.6
v 0.9 2 -0.6
v 1 2 -0.6
v 0.1 2 -0.7
v 0.2 2 -0.7
v 0.3 2 -0.7
v 0.4 2 -0.7
v 0.6 2 -0.7
v 0.7 2 -0.7
v 0.8 2 -0.7
v 0.9 2 -0.7
v 0 2 -0.8
v 0.1 2 -0.8
v 0.2 2 -0.8
v 0.3 2 -0.8
v 0.7 2 -0.8
v 0.8 2 -0.8
v 0.9 2 -0.8
v 1 2 -0.8
v 0.1 2 -0.9
v 0.2 2 -0.9
v 0.3 2 -0.9
v 0.7 2 -0.9
v 0.8 2 -0.9
v 0.9 2 -0.9
v 0 2 -1
v 0.2 2 -1
v 0.8 2 -1
v 1 2 -1
v 0 2.1 -0.1
v 0.1 2.1 -0.1
v 0.3 2.1 -0.1
v 0.7 2.1 -0.1
v 0.9 2.1 -0.1
v 1 2.1 -0.1
v 0 2.1 -0.2
v 0.1 2.1 -0.2
v 0.2 2.1 -0.2
v 0.3 2.1 -0.2
v 0.7 2.1 -0.2
v 0.8 2.1 -0.2
v 0.9 2.1 -0.2
v 1 2.1 -0.2
v 0.1 2.1 -0.3
v 0.2 2.1 -0.3
v 0.3 2.1 -0.3
v 0.4 2.1 -0.3
v 0.6 2.1 -0.3
v 0.7 2.1 -0.3
v 0.8 2.1 -0.3
v 0.9 2.1 -0.3
v 0.3 2.1 -0.4
v 0.4 2.1 -0.4
v 0.6 2.1 -0.4
v 0.7 2.1 -0.4
v 0 2.1 -0.5
v 0.1 2.1 -0.5
v 0.9 2.1 -0.5
v 1 2.1 -0.5
v 0 2.1 -0.6
v 0.1 2.1 -0.6
v 0.3 2.1 -0.6
v 0.4 2.1 -0.6
v 0.6 2.1 -0.6
v 0.7 2.1 -0.6
v 0.9 2.1 -0.6
v 1 2.1 -0.6
v 0.1 2.1 -0.7
v 0.2 2.1 -0.7
v 0.3 2.1 -0.7
v 0.4 2.1 -0.7
v 0.6 2.1 -0.7
v 0.7 2.1 -0.7
v 0.8 2.1 -0.7
v 0.9 2.1 -0.7
v 0 2.1 -0.8
v 0.1 2.1 -0.8
v 0.2 2.1 -0.8
v 0.3 2.1 -0.8
v 0.7 2.1 -0.8
v 0.8 2.1 -0.8
v 0.9 2.1 -0.8
v 1 2.1 -0.8
v 0.1 2.1 -0.9
v 0.2 2.1 -0.9
v 0.3 2.1 -0.9
v 0.7 2.1 -0.9
v 0.8 2.1 -0.9
v 0.9 2.1 -0.9
v 0 2.1 -1
v 0.2 2.1 -1
v 0.8 2.1 -1
v 1 2.1 -1
v 0 3 0
v 0.4 3 0
v 0.5 3 0
v 1 3 0
v 0 3 -0.1
v 0.4 3 -0.1
v 0.5 3 -0.1
v 1 3 -0.1

# faces
f 7/6/1 2/6/1 1/6/1
f 8/6/1 2/6/1 7/6/1
f 9/5/1 3/5/1 2/5/1
f 9/6/1 2/6/1 8/6/1
f 10/4/1 4/4/1 3/4/1
f 10/5/1 3/5/1 9/5/1
f 11/5/1 5/5/1 4/5/1
f 11/4/1 4/4/1 10/4/1
f 12/6/1 6/6/1 5/6/1
f 12/5/1 5/5/1 11/5/1
f 13/6/1 6/6/1 12/6/1
f 14/3/1 8/3/1 7/3/1
f 15/3/1 8/3/1 14/3/1
f 16/1/1 15/1/1 14/1/1
f 17/1/1 15/1/1 16/1/1
f 18/6/2 19/6/2 24/6/2
f 24/6/2 19/6/2 25/6/2
f 19/5/2 20/5/2 26/5/2
f 25/6/2 19/6/2 26/6/2
f 20/4/2 21/4/2 27/4/2
f 26/5/2 20/5/2 27/5/2
f 21/5/2 22/5/2 28/5/2
f 27/4/2 21/4/2 28/4/2
f 22/6/2 23/6/2 29/6/2
f 28/5/2 22/5/2 29/5/2
f 29/6/2 23/6/2 30/6/2
f 24/3/2 25/3/2 31/3/2
f 31/3/2 25/3/2 32/3/2
f 31/2/2 32/2/2 33/2/2
f 33/2/2 32/2/2 34/2/2
f 33/3/2 34/3/2 35/3/2
f 35/3/2 34/3/2 36/3/2
f 35/1/2 36/1/2 37/1/2
f 37/1/2 36/1/2 38/1/2
f 43/3/3 41/3/3 40/3/3
f 44/3/3 41/3/3 43/3/3
f 45/3/3 41/3/3 44/3/3
f 46/3/3 41/3/3 45/3/3
f 47/3/3 41/3/3 46/3/3
f 48/1/3 42/1/3 41/1/3
f 48/3/3 41/3/3 47/3/3
f 49/6/3 40/6/3 39/6/3
f 50/3/3 43/3/3 40/3/3
f 50/6/3 40/6/3 49/6/3
f 51/3/3 47/3/3 46/3/3
f 51/2/3 48/2/3 47/2/3
f 52/1/3 42/1/3 48/1/3
f 52/2/3 48/2/3 51/2/3
f 53/3/3 43/3/3 50/3/3
f 53/2/3 44/2/3 43/2/3
f 54/3/3 45/3/3 44/3/3
f 54/2/3 44/2/3 53/2/3
f 55/2/3 46/2/3 45/2/3
f 55/3/3 45/3/3 54/3/3
f 56/3/3 51/3/3 46/3/3
f 56/2/3 46/2/3 55/2/3
f 56/3/3 52/3/3 51/3/3
f 57/3/3 55/3/3 54/3/3
f 57/3/3 52/3/3 56/3/3
f 57/3/3 56/3/3 55/3/3
f 57/3/3 54/3/3 53/3/3
f 57/1/3 42/1/3 52/1/3
f 58/1/3 42/1/3 57/1/3
f 59/3/3 57/3/3 53/3/3
f 60/3/3 57/3/3 59/3/3
f 61/2/3 58/2/3 57/2/3
f 61/3/3 57/3/3 60/3/3
f 62/2/3 58/2/3 61/2/3
f 63/2/3 60/2/3 59/2/3
f 63/3/3 59/3/3 53/3/3
f 64/3/3 61/3/3 60/3/3
f 64/2/3 60/2/3 63/2/3
f 65/3/3 61/3/3 64/3/3
f 66/1/3 62/1/3 61/1/3
f 66/3/3 61/3/3 65/3/3
f 67/5/3 50/5/3 49/5/3
f 68/3/3 53/3/3 50/3/3
f 68/5/3 50/5/3 67/5/3
f 68/3/3 65/3/3 64/3/3
f 68/3/3 63/3/3 53/3/3
f 68/3/3 64/3/3 63/3/3
f 69/3/3 65/3/3 68/3/3
f 70/3/3 65/3/3 69/3/3
f 71/2/3 66/2/3 65/2/3
f 71/3/3 65/3/3 70/3/3
f 72/1/3 62/1/3 66/1/3
f 72/2/3 66/2/3 71/2/3
f 73/6/3 68/6/3 67/6/3
f 74/3/3 69/3/3 68/3/3
f 74/6/3 68/6/3 73/6/3
f 75/2/3 70/2/3 69/2/3
f 75/3/3 69/3/3 74/3/3
f 76/3/3 71/3/3 70/3/3
f 76/2/3 70/2/3 75/2/3
f 76/3/3 72/3/3 71/3/3
f 77/1/3 62/1/3 72/1/3
f 77/3/3 72/3/3 76/3/3
f 78/1/3 62/1/3 77/1/3
f 79/3/4 80/3/4 82/3/4
f 82/3/4 80/3/4 83/3/4
f 83/3/4 80/3/4 84/3/4
f 84/3/4 80/3/4 85/3/4
f 85/3/4 80/3/4 86/3/4
f 86/3/4 80/3/4 87/3/4
f 80/1/4 81/1/4 88/1/4
f 87/3/4 80/3/4 88/3/4
f 86/3/4 87/3/4 89/3/4
f 87/2/4 88/2/4 89/2/4
f 88/1/4 81/1/4 90/1/4
f 89/2/4 88/2/4 90/2/4
f 82/3/4 83/3/4 91/3/4
f 83/2/4 84/2/4 92/2/4
f 91/3/4 83/3/4 92/3/4
f 84/3/4 85/3/4 93/3/4
f 92/2/4 84/2/4 93/2/4
f 85/2/4 86/2/4 94/2/4
f 93/3/4 85/3/4 94/3/4
f 86/3/4 89/3/4 95/3/4
f 94/2/4 86/2/4 95/2/4
f 89/3/4 90/3/4 95/3/4
f 93/3/4 94/3/4 96/3/4
f 95/3/4 90/3/4 96/3/4
f 94/3/4 95/3/4 96/3/4
f 92/3/4 93/3/4 96/3/4
f 91/3/4 92/3/4 96/3/4
f 90/1/4 81/1/4 96/1/4
f 96/1/4 81/1/4 97/1/4
f 91/3/4 96/3/4 98/3/4
f 98/3/4 96/3/4 99/3/4
f 96/2/4 97/2/4 100/2/4
f 99/3/4 96/3/4 100/3/4
f 100/2/4 97/2/4 101/2/4
f 91/3/4 98/3/4 102/3/4
f 98/2/4 99/2/4 103/2/4
f 102/3/4 98/3/4 103/3/4
f 99/3/4 100/3/4 104/3/4
f 103/2/4 99/2/4 104/2/4
f 104/3/4 100/3/4 105/3/4
f 100/1/4 101/1/4 106/1/4
f 105/3/4 100/3/4 106/3/4
f 102/3/4 103/3/4 107/3/4
f 104/3/4 105/3/4 107/3/4
f 103/3/4 104/3/4 107/3/4
f 107/3/4 105/3/4 108/3/4
f 102/3/4 107/3/4 109/3/4
f 105/2/4 106/2/4 110/2/4
f 108/3/4 105/3/4 110/3/4
f 106/1/4 101/1/4 111/1/4
f 110/2/4 106/2/4 111/2/4
f 109/3/4 107/3/4 112/3/4
f 107/2/4 108/2/4 113/2/4
f 112/3/4 107/3/4 113/3/4
f 108/3/4 110/3/4 114/3/4
f 113/2/4 108/2/4 114/2/4
f 110/3/4 111/3/4 114/3/4
f 111/1/4 101/1/4 115/1/4
f 114/3/4 111/3/4 115/3/4
f 115/1/4 101/1/4 116/1/4
f 117/6/4 118/6/4 119/6/4
f 119/6/4 118/6/4 120/6/4
f 119/5/4 120/5/4 121/5/4
f 121/5/4 120/5/4 122/5/4
f 121/6/4 122/6/4 123/6/4
f 123/6/4 122/6/4 124/6/4
f 129/6/5 126/6/5 125/6/5
f 130/5/5 127/5/5 126/5/5
f 130/6/5 126/6/5 129/6/5
f 131/5/5 127/5/5 130/5/5
f 132/5/5 127/5/5 131/5/5
f 133/6/5 128/6/5 127/6/5
f 133/5/5 127/5/5 132/5/5
f 134/6/5 128/6/5 133/6/5
f 135/6/5 129/6/5 125/6/5
f 136/5/5 130/5/5 129/5/5
f 136/6/5 129/6/5 135/6/5
f 136/5/5 131/5/5 130/5/5
f 137/5/5 131/5/5 136/5/5
f 138/6/5 132/6/5 131/6/5
f 138/5/5 131/5/5 137/5/5
f 139/5/5 134/5/5 133/5/5
f 139/6/5 132/6/5 138/6/5
f 139/5/5 133/5/5 132/5/5
f 140/5/5 134/5/5 139/5/5
f 141/6/5 128/6/5 134/6/5
f 141/5/5 134/5/5 140/5/5
f 142/6/5 128/6/5 141/6/5
f 143/5/5 137/5/5 136/5/5
f 143/5/5 136/5/5 135/5/5
f 144/6/5 138/6/5 137/6/5
f 144/5/5 137/5/5 143/5/5
f 145/5/5 139/5/5 138/5/5
f 145/6/5 138/6/5 144/6/5
f 146/5/5 139/5/5 145/5/5
f 147/5/5 139/5/5 146/5/5
f 148/6/5 140/6/5 139/6/5
f 148/5/5 139/5/5 147/5/5
f 149/5/5 142/5/5 141/5/5
f 149/6/5 140/6/5 148/6/5
f 149/5/5 141/5/5 140/5/5
f 150/5/5 142/5/5 149/5/5
f 151/5/5 146/5/5 145/5/5
f 151/5/5 145/5/5 144/5/5
f 152/6/5 147/6/5 146/6/5
f 152/5/5 146/5/5 151/5/5
f 153/5/5 148/5/5 147/5/5
f 153/6/5 147/6/5 152/6/5
f 153/5/5 149/5/5 148/5/5
f 154/5/5 149/5/5 153/5/5
f 155/5/5 143/5/5 135/5/5
f 156/6/5 144/6/5 143/6/5
f 156/5/5 143/5/5 155/5/5
f 157/5/5 142/5/5 150/5/5
f 157/6/5 150/6/5 149/6/5
f 158/5/5 142/5/5 157/5/5
f 159/4/5 156/4/5 155/4/5
f 160/6/5 144/6/5 156/6/5
f 160/4/5 156/4/5 159/4/5
f 161/5/5 151/5/5 144/5/5
f 161/6/5 152/6/5 151/6/5
f 162/5/5 153/5/5 152/5/5
f 162/6/5 152/6/5 161/6/5
f 163/6/5 154/6/5 153/6/5
f 163/5/5 153/5/5 162/5/5
f 164/5/5 149/5/5 154/5/5
f 164/6/5 154/6/5 163/6/5
f 165/6/5 157/6/5 149/6/5
f 165/4/5 158/4/5 157/4/5
f 166/4/5 158/4/5 165/4/5
f 167/6/5 144/6/5 160/6/5
f 167/5/5 160/5/5 159/5/5
f 168/5/5 161/5/5 144/5/5
f 168/6/5 144/6/5 167/6/5
f 168/5/5 162/5/5 161/5/5
f 169/5/5 162/5/5 168/5/5
f 170/6/5 163/6/5 162/6/5
f 170/5/5 162/5/5 169/5/5
f 171/5/5 164/5/5 163/5/5
f 171/6/5 163/6/5 170/6/5
f 172/5/5 149/5/5 164/5/5
f 172/5/5 164/5/5 171/5/5
f 173/6/5 165/6/5 149/6/5
f 173/5/5 149/5/5 172/5/5
f 174/5/5 166/5/5 165/5/5
f 174/6/5 165/6/5 173/6/5
f 175/5/5 167/5/5 159/5/5
f 175/5/5 168/5/5 167/5/5
f 176/5/5 168/5/5 175/5/5
f 177/6/5 169/6/5 168/6/5
f 177/5/5 168/5/5 176/5/5
f 178/5/5 172/5/5 171/5/5
f 178/6/5 169/6/5 177/6/5
f 178/5/5 171/5/5 170/5/5
f 178/5/5 170/5/5 169/5/5
f 179/6/5 173/6/5 172/6/5
f 179/5/5 172/5/5 178/5/5
f 180/5/5 174/5/5 173/5/5
f 180/6/5 173/6/5 179/6/5
f 181/5/5 166/5/5 174/5/5
f 181/5/5 174/5/5 180/5/5
f 182/5/5 166/5/5 181/5/5
f 183/6/5 176/6/5 175/6/5
f 183/5/5 178/5/5 177/5/5
f 183/5/5 177/5/5 176/5/5
f 184/5/5 178/5/5 183/5/5
f 185/6/5 179/6/5 178/6/5
f 185/5/5 178/5/5 184/5/5
f 186/5/5 180/5/5 179/5/5
f 186/6/5 179/6/5 185/6/5
f 186/5/5 181/5/5 180/5/5
f 187/5/5 181/5/5 186/5/5
f 188/6/5 182/6/5 181/6/5
f 188/5/5 181/5/5 187/5/5
f 189/6/5 183/6/5 175/6/5
f 189/6/5 184/6/5 183/6/5
f 190/5/5 187/5/5 186/5/5
f 190/6/5 184/6/5 189/6/5
f 190/5/5 185/5/5 184/5/5
f 190/5/5 186/5/5 185/5/5
f 191/6/5 188/6/5 187/6/5
f 191/5/5 187/5/5 190/5/5
f 192/6/5 182/6/5 188/6/5
f 192/6/5 188/6/5 191/6/5
f 193/6/6 194/6/6 199/6/6
f 194/5/6 195/5/6 200/5/6
f 199/6/6 194/6/6 200/6/6
f 200/5/6 195/5/6 201/5/6
f 195/6/6 196/6/6 202/6/6
f 201/5/6 195/5/6 202/5/6
f 196/5/6 197/5/6 203/5/6
f 202/6/6 196/6/6 203/6/6
f 203/5/6 197/5/6 204/5/6
f 197/6/6 198/6/6 205/6/6
f 204/5/6 197/5/6 205/5/6
f 205/6/6 198/6/6 206/6/6
f 200/5/6 201/5/6 207/5/6
f 199/5/6 200/5/6 207/5/6
f 201/6/6 202/6/6 208/6/6
f 207/5/6 201/5/6 208/5/6
f 202/5/6 203/5/6 209/5/6
f 208/6/6 202/6/6 209/6/6
f 209/5/6 203/5/6 210/5/6
f 210/5/6 203/5/6 211/5/6
f 203/6/6 204/6/6 212/6/6
f 211/5/6 203/5/6 212/5/6
f 205/5/6 206/5/6 213/5/6
f 212/6/6 204/6/6 213/6/6
f 204/5/6 205/5/6 213/5/6
f 213/5/6 206/5/6 214/5/6
f 209/5/6 210/5/6 215/5/6
f 208/5/6 209/5/6 215/5/6
f 210/6/6 211/6/6 216/6/6
f 215/5/6 210/5/6 216/5/6
f 211/5/6 212/5/6 217/5/6
f 216/6/6 211/6/6 217/6/6
f 212/5/6 213/5/6 217/5/6
f 217/5/6 213/5/6 218/5/6
f 199/5/6 207/5/6 219/5/6
f 207/6/6 208/6/6 220/6/6
f 219/5/6 207/5/6 220/5/6
f 214/5/6 206/5/6 221/5/6
f 213/6/6 214/6/6 221/6/6
f 221/5/6 206/5/6 222/5/6
f 219/4/6 220/4/6 223/4/6
f 220/6/6 208/6/6 224/6/6
f 223/4/6 220/4/6 224/4/6
f 208/5/6 215/5/6 225/5/6
f 215/6/6 216/6/6 225/6/6
f 216/5/6 217/5/6 226/5/6
f 225/6/6 216/6/6 226/6/6
f 217/6/6 218/6/6 227/6/6
f 226/5/6 217/5/6 227/5/6
f 218/5/6 213/5/6 228/5/6
f 227/6/6 218/6/6 228/6/6
f 213/6/6 221/6/6 229/6/6
f 221/4/6 222/4/6 229/4/6
f 229/4/6 222/4/6 230/4/6
f 224/6/6 208/6/6 231/6/6
f 223/5/6 224/5/6 231/5/6
f 208/5/6 225/5/6 232/5/6
f 231/6/6 208/6/6 232/6/6
f 225/5/6 226/5/6 232/5/6
f 232/5/6 226/5/6 233/5/6
f 226/6/6 227/6/6 234/6/6
f 233/5/6 226/5/6 234/5/6
f 227/5/6 228/5/6 235/5/6
f 234/6/6 227/6/6 235/6/6
f 228/5/6 213/5/6 236/5/6
f 235/5/6 228/5/6 236/5/6
f 213/6/6 229/6/6 237/6/6
f 236/5/6 213/5/6 237/5/6
f 229/5/6 230/5/6 238/5/6
f 237/6/6 229/6/6 238/6/6
f 223/5/6 231/5/6 239/5/6
f 231/5/6 232/5/6 239/5/6
f 239/5/6 232/5/6 240/5/6
f 232/6/6 233/6/6 241/6/6
f 240/5/6 232/5/6 241/5/6
f 235/5/6 236/5/6 242/5/6
f 241/6/6 233/6/6 242/6/6
f 234/5/6 235/5/6 242/5/6
f 233/5/6 234/5/6 242/5/6
f 236/6/6 237/6/6 243/6/6
f 242/5/6 236/5/6 243/5/6
f 237/5/6 238/5/6 244/5/6
f 243/6/6 237/6/6 244/6/6
f 238/5/6 230/5/6 245/5/6
f 244/5/6 238/5/6 245/5/6
f 245/5/6 230/5/6 246/5/6
f 239/6/6 240/6/6 247/6/6
f 241/5/6 242/5/6 247/5/6
f 240/5/6 241/5/6 247/5/6
f 247/5/6 242/5/6 248/5/6
f 242/6/6 243/6/6 249/6/6
f 248/5/6 242/5/6 249/5/6
f 243/5/6 244/5/6 250/5/6
f 249/6/6 243/6/6 250/6/6
f 244/5/6 245/5/6 250/5/6
f 250/5/6 245/5/6 251/5/6
f 245/6/6 246/6/6 252/6/6
f 251/5/6 245/5/6 252/5/6
f 239/6/6 247/6/6 253/6/6
f 247/6/6 248/6/6 253/6/6
f 250/5/6 251/5/6 254/5/6
f 253/6/6 248/6/6 254/6/6
f 248/5/6 249/5/6 254/5/6
f 249/5/6 250/5/6 254/5/6
f 251/6/6 252/6/6 255/6/6
f 254/5/6 251/5/6 255/5/6
f 252/6/6 246/6/6 256/6/6
f 255/6/6 252/6/6 256/6/6
f 257/1/6 258/1/6 261/1/6
f 258/2/6 259/2/6 262/2/6
f 261/1/6 258/1/6 262/1/6
f 259/1/6 260/1/6 263/1/6
f 262/2/6 259/2/6 263/2/6
f 263/1/6 260/1/6 264/1/6
