# MagicaVoxel @ Ephtracy

# group
o 

# material
mtllib 002_b.mtl
usemtl palette

# normals
vn -1 0 0
vn 1 0 0
vn 0 0 1
vn 0 0 -1
vn 0 -1 0
vn 0 1 0

# texcoords
vt 0.623047 0.5
vt 0.634766 0.5
vt 0.638672 0.5
vt 0.642578 0.5
vt 0.646484 0.5
vt 0.650391 0.5

# verts
v 0 2 0
v 0 2 -0.2
v 0 2 -0.5
v 0 2 -0.6
v 0 2 -0.8
v 0 2 -1
v 0 2.1 0
v 0 2.1 -0.1
v 0 2.1 -0.2
v 0 2.1 -0.3
v 0 2.1 -0.4
v 0 2.1 -0.5
v 0 2.1 -0.6
v 0 2.1 -0.7
v 0 2.1 -0.8
v 0 2.1 -0.9
v 0 2.1 -1
v 0 2.2 -0.1
v 0 2.2 -0.3
v 0 2.2 -0.4
v 0 2.2 -0.6
v 0 2.2 -0.7
v 0 2.2 -0.9
v 0 2.2 -1
v 0 2.3 0
v 0 2.3 -0.1
v 0.1 2.1 -0.1
v 0.1 2.1 -0.3
v 0.1 2.1 -0.4
v 0.1 2.1 -0.6
v 0.1 2.1 -0.7
v 0.1 2.1 -0.9
v 0.1 2.1 -1
v 0.1 2.2 0
v 0.1 2.2 -0.1
v 0.1 2.2 -0.3
v 0.1 2.2 -0.4
v 0.1 2.2 -0.6
v 0.1 2.2 -0.7
v 0.1 2.2 -0.9
v 0.1 2.2 -1
v 0.1 2.3 0
v 0.1 2.3 -0.1
v 1 2 0
v 1 2 -0.2
v 1 2 -0.5
v 1 2 -0.6
v 1 2 -0.8
v 1 2 -1
v 1 2.1 0
v 1 2.1 -0.1
v 1 2.1 -0.2
v 1 2.1 -0.5
v 1 2.1 -0.6
v 1 2.1 -0.8
v 1 2.1 -1
v 1 2.2 0
v 1 2.2 -0.1
v 0 2 0
v 0 2.1 0
v 0 2.3 0
v 0.1 2.1 0
v 0.1 2.2 0
v 0.1 2.3 0
v 0.2 2 0
v 0.2 2.1 0
v 0.3 2.1 0
v 0.3 2.2 0
v 0.4 2.1 0
v 0.4 2.2 0
v 0.6 2.1 0
v 0.6 2.2 0
v 0.7 2.1 0
v 0.7 2.2 0
v 0.8 2 0
v 0.8 2.1 0
v 0.9 2.1 0
v 0.9 2.2 0
v 1 2 0
v 1 2.1 0
v 1 2.2 0
v 0 2.2 -0.1
v 0 2.3 -0.1
v 0.1 2.1 -0.1
v 0.1 2.2 -0.1
v 0.1 2.3 -0.1
v 0.3 2.1 -0.1
v 0.3 2.2 -0.1
v 0.4 2.1 -0.1
v 0.4 2.2 -0.1
v 0.6 2.1 -0.1
v 0.6 2.2 -0.1
v 0.7 2.1 -0.1
v 0.7 2.2 -0.1
v 0.9 2.1 -0.1
v 0.9 2.2 -0.1
v 1 2.1 -0.1
v 1 2.2 -0.1
v 0 2 -1
v 0 2.1 -1
v 0 2.2 -1
v 0.1 2.1 -1
v 0.1 2.2 -1
v 0.2 2 -1
v 0.2 2.1 -1
v 0.8 2 -1
v 0.8 2.1 -1
v 1 2 -1
v 1 2.1 -1
v 0 2 0
v 0.2 2 0
v 0.8 2 0
v 1 2 0
v 0.1 2 -0.1
v 0.2 2 -0.1
v 0.3 2 -0.1
v 0.7 2 -0.1
v 0.8 2 -0.1
v 0.9 2 -0.1
v 0 2 -0.2
v 0.1 2 -0.2
v 0.2 2 -0.2
v 0.3 2 -0.2
v 0.7 2 -0.2
v 0.8 2 -0.2
v 0.9 2 -0.2
v 1 2 -0.2
v 0.1 2 -0.3
v 0.2 2 -0.3
v 0.3 2 -0.3
v 0.4 2 -0.3
v 0.6 2 -0.3
v 0.7 2 -0.3
v 0.8 2 -0.3
v 0.9 2 -0.3
v 0.3 2 -0.4
v 0.4 2 -0.4
v 0.6 2 -0.4
v 0.7 2 -0.4
v 0 2 -0.5
v 0.1 2 -0.5
v 0.9 2 -0.5
v 1 2 -0.5
v 0 2 -0.6
v 0.1 2 -0.6
v 0.3 2 -0.6
v 0.4 2 -0.6
v 0.6 2 -0.6
v 0.7 2 -0.6
v 0.9 2 -0.6
v 1 2 -0.6
v 0.1 2 -0.7
v 0.2 2 -0.7
v 0.3 2 -0.7
v 0.4 2 -0.7
v 0.6 2 -0.7
v 0.7 2 -0.7
v 0.8 2 -0.7
v 0.9 2 -0.7
v 0 2 -0.8
v 0.1 2 -0.8
v 0.2 2 -0.8
v 0.3 2 -0.8
v 0.7 2 -0.8
v 0.8 2 -0.8
v 0.9 2 -0.8
v 1 2 -0.8
v 0.1 2 -0.9
v 0.2 2 -0.9
v 0.3 2 -0.9
v 0.7 2 -0.9
v 0.8 2 -0.9
v 0.9 2 -0.9
v 0 2 -1
v 0.2 2 -1
v 0.8 2 -1
v 1 2 -1
v 0.1 2.1 -0.1
v 0.3 2.1 -0.1
v 0.4 2.1 -0.1
v 0.6 2.1 -0.1
v 0.7 2.1 -0.1
v 0.9 2.1 -0.1
v 1 2.1 -0.1
v 0.2 2.1 -0.2
v 0.3 2.1 -0.2
v 0.7 2.1 -0.2
v 0.8 2.1 -0.2
v 0.9 2.1 -0.2
v 1 2.1 -0.2
v 0.1 2.1 -0.3
v 0.2 2.1 -0.3
v 0.3 2.1 -0.3
v 0.4 2.1 -0.3
v 0.6 2.1 -0.3
v 0.7 2.1 -0.3
v 0.8 2.1 -0.3
v 0.9 2.1 -0.3
v 0.1 2.1 -0.4
v 0.3 2.1 -0.4
v 0.4 2.1 -0.4
v 0.6 2.1 -0.4
v 0.7 2.1 -0.4
v 0.9 2.1 -0.5
v 1 2.1 -0.5
v 0.1 2.1 -0.6
v 0.3 2.1 -0.6
v 0.4 2.1 -0.6
v 0.6 2.1 -0.6
v 0.7 2.1 -0.6
v 0.9 2.1 -0.6
v 1 2.1 -0.6
v 0.1 2.1 -0.7
v 0.2 2.1 -0.7
v 0.3 2.1 -0.7
v 0.4 2.1 -0.7
v 0.6 2.1 -0.7
v 0.7 2.1 -0.7
v 0.8 2.1 -0.7
v 0.9 2.1 -0.7
v 0.2 2.1 -0.8
v 0.3 2.1 -0.8
v 0.7 2.1 -0.8
v 0.8 2.1 -0.8
v 0.9 2.1 -0.8
v 1 2.1 -0.8
v 0.1 2.1 -0.9
v 0.2 2.1 -0.9
v 0.3 2.1 -0.9
v 0.7 2.1 -0.9
v 0.8 2.1 -0.9
v 0.9 2.1 -0.9
v 0.1 2.1 -1
v 0.2 2.1 -1
v 0.8 2.1 -1
v 1 2.1 -1
v 0.1 2.2 0
v 0.3 2.2 0
v 0.4 2.2 0
v 0.6 2.2 0
v 0.7 2.2 0
v 0.9 2.2 0
v 1 2.2 0
v 0 2.2 -0.1
v 0.1 2.2 -0.1
v 0.3 2.2 -0.1
v 0.4 2.2 -0.1
v 0.6 2.2 -0.1
v 0.7 2.2 -0.1
v 0.9 2.2 -0.1
v 1 2.2 -0.1
v 0 2.2 -0.3
v 0.1 2.2 -0.3
v 0 2.2 -0.4
v 0.1 2.2 -0.4
v 0 2.2 -0.6
v 0.1 2.2 -0.6
v 0 2.2 -0.7
v 0.1 2.2 -0.7
v 0 2.2 -0.9
v 0.1 2.2 -0.9
v 0 2.2 -1
v 0.1 2.2 -1
v 0 2.3 0
v 0.1 2.3 0
v 0 2.3 -0.1
v 0.1 2.3 -0.1

# faces
f 7/4/1 2/4/1 1/4/1
f 8/4/1 2/4/1 7/4/1
f 9/3/1 3/3/1 2/3/1
f 9/4/1 2/4/1 8/4/1
f 10/3/1 3/3/1 9/3/1
f 11/3/1 3/3/1 10/3/1
f 12/2/1 4/2/1 3/2/1
f 12/3/1 3/3/1 11/3/1
f 13/3/1 5/3/1 4/3/1
f 13/2/1 4/2/1 12/2/1
f 14/3/1 5/3/1 13/3/1
f 15/4/1 6/4/1 5/4/1
f 15/3/1 5/3/1 14/3/1
f 16/4/1 6/4/1 15/4/1
f 17/4/1 6/4/1 16/4/1
f 18/5/1 8/5/1 7/5/1
f 18/1/1 9/1/1 8/1/1
f 18/1/1 10/1/1 9/1/1
f 19/6/1 11/6/1 10/6/1
f 19/1/1 10/1/1 18/1/1
f 20/1/1 12/1/1 11/1/1
f 20/6/1 11/6/1 19/6/1
f 20/1/1 13/1/1 12/1/1
f 21/6/1 14/6/1 13/6/1
f 21/1/1 13/1/1 20/1/1
f 22/1/1 16/1/1 15/1/1
f 22/6/1 14/6/1 21/6/1
f 22/1/1 15/1/1 14/1/1
f 23/6/1 17/6/1 16/6/1
f 23/1/1 16/1/1 22/1/1
f 24/6/1 17/6/1 23/6/1
f 25/5/1 18/5/1 7/5/1
f 26/5/1 18/5/1 25/5/1
f 27/1/2 28/1/2 35/1/2
f 28/6/2 29/6/2 36/6/2
f 35/1/2 28/1/2 36/1/2
f 29/1/2 30/1/2 37/1/2
f 36/6/2 29/6/2 37/6/2
f 30/6/2 31/6/2 38/6/2
f 37/1/2 30/1/2 38/1/2
f 31/1/2 32/1/2 39/1/2
f 38/6/2 31/6/2 39/6/2
f 32/6/2 33/6/2 40/6/2
f 39/1/2 32/1/2 40/1/2
f 40/6/2 33/6/2 41/6/2
f 34/5/2 35/5/2 42/5/2
f 42/5/2 35/5/2 43/5/2
f 44/4/2 45/4/2 50/4/2
f 50/4/2 45/4/2 51/4/2
f 45/3/2 46/3/2 52/3/2
f 51/4/2 45/4/2 52/4/2
f 46/2/2 47/2/2 53/2/2
f 52/3/2 46/3/2 53/3/2
f 47/3/2 48/3/2 54/3/2
f 53/2/2 47/2/2 54/2/2
f 48/4/2 49/4/2 55/4/2
f 54/3/2 48/3/2 55/3/2
f 55/4/2 49/4/2 56/4/2
f 50/6/2 51/6/2 57/6/2
f 57/6/2 51/6/2 58/6/2
f 62/4/3 60/4/3 59/4/3
f 62/5/3 61/5/3 60/5/3
f 63/5/3 61/5/3 62/5/3
f 64/5/3 61/5/3 63/5/3
f 65/4/3 62/4/3 59/4/3
f 66/1/3 63/1/3 62/1/3
f 66/4/3 62/4/3 65/4/3
f 67/3/3 66/3/3 65/3/3
f 67/1/3 63/1/3 66/1/3
f 68/1/3 63/1/3 67/1/3
f 69/3/3 67/3/3 65/3/3
f 69/6/3 68/6/3 67/6/3
f 70/6/3 68/6/3 69/6/3
f 71/3/3 69/3/3 65/3/3
f 71/1/3 70/1/3 69/1/3
f 72/1/3 70/1/3 71/1/3
f 73/3/3 71/3/3 65/3/3
f 73/6/3 72/6/3 71/6/3
f 74/6/3 72/6/3 73/6/3
f 75/3/3 73/3/3 65/3/3
f 76/1/3 74/1/3 73/1/3
f 76/3/3 73/3/3 75/3/3
f 77/4/3 76/4/3 75/4/3
f 77/1/3 74/1/3 76/1/3
f 78/1/3 74/1/3 77/1/3
f 79/4/3 77/4/3 75/4/3
f 80/6/3 78/6/3 77/6/3
f 80/4/3 77/4/3 79/4/3
f 81/6/3 78/6/3 80/6/3
f 82/5/4 83/5/4 85/5/4
f 85/5/4 83/5/4 86/5/4
f 84/1/4 85/1/4 87/1/4
f 87/1/4 85/1/4 88/1/4
f 87/6/4 88/6/4 89/6/4
f 89/6/4 88/6/4 90/6/4
f 89/1/4 90/1/4 91/1/4
f 91/1/4 90/1/4 92/1/4
f 91/6/4 92/6/4 93/6/4
f 93/6/4 92/6/4 94/6/4
f 93/1/4 94/1/4 95/1/4
f 95/1/4 94/1/4 96/1/4
f 95/6/4 96/6/4 97/6/4
f 97/6/4 96/6/4 98/6/4
f 99/4/4 100/4/4 102/4/4
f 100/6/4 101/6/4 102/6/4
f 102/6/4 101/6/4 103/6/4
f 99/4/4 102/4/4 104/4/4
f 104/4/4 102/4/4 105/4/4
f 104/3/4 105/3/4 106/3/4
f 106/3/4 105/3/4 107/3/4
f 106/4/4 107/4/4 108/4/4
f 108/4/4 107/4/4 109/4/4
f 114/4/5 111/4/5 110/4/5
f 115/3/5 112/3/5 111/3/5
f 115/4/5 111/4/5 114/4/5
f 116/3/5 112/3/5 115/3/5
f 117/3/5 112/3/5 116/3/5
f 118/4/5 113/4/5 112/4/5
f 118/3/5 112/3/5 117/3/5
f 119/4/5 113/4/5 118/4/5
f 120/4/5 114/4/5 110/4/5
f 121/3/5 115/3/5 114/3/5
f 121/4/5 114/4/5 120/4/5
f 121/3/5 116/3/5 115/3/5
f 122/3/5 116/3/5 121/3/5
f 123/4/5 117/4/5 116/4/5
f 123/3/5 116/3/5 122/3/5
f 124/3/5 119/3/5 118/3/5
f 124/4/5 117/4/5 123/4/5
f 124/3/5 118/3/5 117/3/5
f 125/3/5 119/3/5 124/3/5
f 126/4/5 113/4/5 119/4/5
f 126/3/5 119/3/5 125/3/5
f 127/4/5 113/4/5 126/4/5
f 128/3/5 122/3/5 121/3/5
f 128/3/5 121/3/5 120/3/5
f 129/4/5 123/4/5 122/4/5
f 129/3/5 122/3/5 128/3/5
f 130/3/5 124/3/5 123/3/5
f 130/4/5 123/4/5 129/4/5
f 131/3/5 124/3/5 130/3/5
f 132/3/5 124/3/5 131/3/5
f 133/4/5 125/4/5 124/4/5
f 133/3/5 124/3/5 132/3/5
f 134/3/5 127/3/5 126/3/5
f 134/4/5 125/4/5 133/4/5
f 134/3/5 126/3/5 125/3/5
f 135/3/5 127/3/5 134/3/5
f 136/3/5 131/3/5 130/3/5
f 136/3/5 130/3/5 129/3/5
f 137/4/5 132/4/5 131/4/5
f 137/3/5 131/3/5 136/3/5
f 138/3/5 133/3/5 132/3/5
f 138/4/5 132/4/5 137/4/5
f 138/3/5 134/3/5 133/3/5
f 139/3/5 134/3/5 138/3/5
f 140/3/5 128/3/5 120/3/5
f 141/4/5 129/4/5 128/4/5
f 141/3/5 128/3/5 140/3/5
f 142/3/5 127/3/5 135/3/5
f 142/4/5 135/4/5 134/4/5
f 143/3/5 127/3/5 142/3/5
f 144/2/5 141/2/5 140/2/5
f 145/4/5 129/4/5 141/4/5
f 145/2/5 141/2/5 144/2/5
f 146/3/5 136/3/5 129/3/5
f 146/4/5 137/4/5 136/4/5
f 147/3/5 138/3/5 137/3/5
f 147/4/5 137/4/5 146/4/5
f 148/4/5 139/4/5 138/4/5
f 148/3/5 138/3/5 147/3/5
f 149/3/5 134/3/5 139/3/5
f 149/4/5 139/4/5 148/4/5
f 150/4/5 142/4/5 134/4/5
f 150/2/5 143/2/5 142/2/5
f 151/2/5 143/2/5 150/2/5
f 152/4/5 129/4/5 145/4/5
f 152/3/5 145/3/5 144/3/5
f 153/3/5 146/3/5 129/3/5
f 153/4/5 129/4/5 152/4/5
f 153/3/5 147/3/5 146/3/5
f 154/3/5 147/3/5 153/3/5
f 155/4/5 148/4/5 147/4/5
f 155/3/5 147/3/5 154/3/5
f 156/3/5 149/3/5 148/3/5
f 156/4/5 148/4/5 155/4/5
f 157/3/5 134/3/5 149/3/5
f 157/3/5 149/3/5 156/3/5
f 158/4/5 150/4/5 134/4/5
f 158/3/5 134/3/5 157/3/5
f 159/3/5 151/3/5 150/3/5
f 159/4/5 150/4/5 158/4/5
f 160/3/5 152/3/5 144/3/5
f 160/3/5 153/3/5 152/3/5
f 161/3/5 153/3/5 160/3/5
f 162/4/5 154/4/5 153/4/5
f 162/3/5 153/3/5 161/3/5
f 163/3/5 157/3/5 156/3/5
f 163/4/5 154/4/5 162/4/5
f 163/3/5 156/3/5 155/3/5
f 163/3/5 155/3/5 154/3/5
f 164/4/5 158/4/5 157/4/5
f 164/3/5 157/3/5 163/3/5
f 165/3/5 159/3/5 158/3/5
f 165/4/5 158/4/5 164/4/5
f 166/3/5 151/3/5 159/3/5
f 166/3/5 159/3/5 165/3/5
f 167/3/5 151/3/5 166/3/5
f 168/4/5 161/4/5 160/4/5
f 168/3/5 163/3/5 162/3/5
f 168/3/5 162/3/5 161/3/5
f 169/3/5 163/3/5 168/3/5
f 170/4/5 164/4/5 163/4/5
f 170/3/5 163/3/5 169/3/5
f 171/3/5 165/3/5 164/3/5
f 171/4/5 164/4/5 170/4/5
f 171/3/5 166/3/5 165/3/5
f 172/3/5 166/3/5 171/3/5
f 173/4/5 167/4/5 166/4/5
f 173/3/5 166/3/5 172/3/5
f 174/4/5 168/4/5 160/4/5
f 174/4/5 169/4/5 168/4/5
f 175/3/5 172/3/5 171/3/5
f 175/4/5 169/4/5 174/4/5
f 175/3/5 170/3/5 169/3/5
f 175/3/5 171/3/5 170/3/5
f 176/4/5 173/4/5 172/4/5
f 176/3/5 172/3/5 175/3/5
f 177/4/5 167/4/5 173/4/5
f 177/4/5 173/4/5 176/4/5
f 178/3/6 179/3/6 185/3/6
f 179/4/6 180/4/6 186/4/6
f 185/3/6 179/3/6 186/3/6
f 180/4/6 181/4/6 186/4/6
f 181/4/6 182/4/6 186/4/6
f 182/3/6 183/3/6 187/3/6
f 186/4/6 182/4/6 187/4/6
f 187/3/6 183/3/6 188/3/6
f 183/4/6 184/4/6 189/4/6
f 188/3/6 183/3/6 189/3/6
f 189/4/6 184/4/6 190/4/6
f 178/3/6 185/3/6 191/3/6
f 185/4/6 186/4/6 192/4/6
f 191/3/6 185/3/6 192/3/6
f 186/3/6 187/3/6 193/3/6
f 192/4/6 186/4/6 193/4/6
f 193/3/6 187/3/6 194/3/6
f 194/3/6 187/3/6 195/3/6
f 187/4/6 188/4/6 196/4/6
f 195/3/6 187/3/6 196/3/6
f 188/3/6 189/3/6 197/3/6
f 196/4/6 188/4/6 197/4/6
f 189/3/6 190/3/6 197/3/6
f 197/3/6 190/3/6 198/3/6
f 191/4/6 192/4/6 199/4/6
f 193/3/6 194/3/6 200/3/6
f 192/3/6 193/3/6 200/3/6
f 194/4/6 195/4/6 201/4/6
f 200/3/6 194/3/6 201/3/6
f 195/3/6 196/3/6 202/3/6
f 201/4/6 195/4/6 202/4/6
f 196/3/6 197/3/6 202/3/6
f 202/3/6 197/3/6 203/3/6
f 198/3/6 190/3/6 204/3/6
f 197/4/6 198/4/6 204/4/6
f 204/3/6 190/3/6 205/3/6
f 199/4/6 192/4/6 206/4/6
f 192/3/6 200/3/6 207/3/6
f 200/4/6 201/4/6 207/4/6
f 201/3/6 202/3/6 208/3/6
f 207/4/6 201/4/6 208/4/6
f 202/4/6 203/4/6 209/4/6
f 208/3/6 202/3/6 209/3/6
f 203/3/6 197/3/6 210/3/6
f 209/4/6 203/4/6 210/4/6
f 197/4/6 204/4/6 211/4/6
f 204/2/6 205/2/6 211/2/6
f 211/2/6 205/2/6 212/2/6
f 206/4/6 192/4/6 213/4/6
f 207/3/6 208/3/6 214/3/6
f 213/4/6 192/4/6 214/4/6
f 192/3/6 207/3/6 214/3/6
f 214/3/6 208/3/6 215/3/6
f 208/4/6 209/4/6 216/4/6
f 215/3/6 208/3/6 216/3/6
f 209/3/6 210/3/6 217/3/6
f 216/4/6 209/4/6 217/4/6
f 210/3/6 197/3/6 218/3/6
f 217/3/6 210/3/6 218/3/6
f 197/4/6 211/4/6 219/4/6
f 218/3/6 197/3/6 219/3/6
f 211/3/6 212/3/6 220/3/6
f 219/4/6 211/4/6 220/4/6
f 214/4/6 215/4/6 221/4/6
f 213/3/6 214/3/6 221/3/6
f 216/3/6 217/3/6 222/3/6
f 221/4/6 215/4/6 222/4/6
f 215/3/6 216/3/6 222/3/6
f 217/3/6 218/3/6 222/3/6
f 218/4/6 219/4/6 223/4/6
f 222/3/6 218/3/6 223/3/6
f 219/3/6 220/3/6 224/3/6
f 223/4/6 219/4/6 224/4/6
f 220/3/6 212/3/6 225/3/6
f 224/3/6 220/3/6 225/3/6
f 225/3/6 212/3/6 226/3/6
f 221/3/6 222/3/6 227/3/6
f 213/3/6 221/3/6 227/3/6
f 227/3/6 222/3/6 228/3/6
f 222/4/6 223/4/6 229/4/6
f 228/3/6 222/3/6 229/3/6
f 223/3/6 224/3/6 230/3/6
f 229/4/6 223/4/6 230/4/6
f 224/3/6 225/3/6 230/3/6
f 230/3/6 225/3/6 231/3/6
f 225/4/6 226/4/6 232/4/6
f 231/3/6 225/3/6 232/3/6
f 227/4/6 228/4/6 233/4/6
f 228/3/6 229/3/6 234/3/6
f 233/4/6 228/4/6 234/4/6
f 230/3/6 231/3/6 234/3/6
f 229/3/6 230/3/6 234/3/6
f 231/4/6 232/4/6 235/4/6
f 234/3/6 231/3/6 235/3/6
f 232/4/6 226/4/6 236/4/6
f 235/4/6 232/4/6 236/4/6
f 237/1/6 238/1/6 245/1/6
f 238/6/6 239/6/6 246/6/6
f 245/1/6 238/1/6 246/1/6
f 239/1/6 240/1/6 247/1/6
f 246/6/6 239/6/6 247/6/6
f 240/6/6 241/6/6 248/6/6
f 247/1/6 240/1/6 248/1/6
f 241/1/6 242/1/6 249/1/6
f 248/6/6 241/6/6 249/6/6
f 242/6/6 243/6/6 250/6/6
f 249/1/6 242/1/6 250/1/6
f 250/6/6 243/6/6 251/6/6
f 244/1/6 245/1/6 252/1/6
f 252/1/6 245/1/6 253/1/6
f 252/6/6 253/6/6 254/6/6
f 254/6/6 253/6/6 255/6/6
f 254/1/6 255/1/6 256/1/6
f 256/1/6 255/1/6 257/1/6
f 256/6/6 257/6/6 258/6/6
f 258/6/6 257/6/6 259/6/6
f 258/1/6 259/1/6 260/1/6
f 260/1/6 259/1/6 261/1/6
f 260/6/6 261/6/6 262/6/6
f 262/6/6 261/6/6 263/6/6
f 264/5/6 265/5/6 266/5/6
f 266/5/6 265/5/6 267/5/6
