# MagicaVoxel @ Ephtracy

# group
o 

# material
mtllib 002_d.mtl
usemtl palette

# normals
vn -1 0 0
vn 1 0 0
vn 0 0 1
vn 0 0 -1
vn 0 -1 0
vn 0 1 0

# texcoords
vt 0.623047 0.5
vt 0.634766 0.5
vt 0.638672 0.5
vt 0.642578 0.5
vt 0.650391 0.5

# verts
v 0 2 0
v 0 2 -0.2
v 0 2 -0.5
v 0 2 -0.6
v 0 2 -0.8
v 0 2 -1
v 0 2.1 0
v 0 2.1 -0.1
v 0 2.1 -0.2
v 0 2.1 -0.3
v 0 2.1 -0.4
v 0 2.1 -0.5
v 0 2.1 -0.6
v 0 2.1 -0.7
v 0 2.1 -0.8
v 0 2.1 -0.9
v 0 2.1 -1
v 0 2.2 0
v 0 2.2 -0.1
v 0 2.2 -0.3
v 0 2.2 -0.4
v 0 2.2 -0.6
v 0 2.2 -0.7
v 0 2.2 -0.9
v 0 2.2 -1
v 0.9 2.1 0
v 0.9 2.1 -0.1
v 0.9 2.1 -0.3
v 0.9 2.1 -0.4
v 0.9 2.1 -0.6
v 0.9 2.1 -0.7
v 0.9 2.1 -0.9
v 0.9 2.1 -1
v 0.9 2.2 0
v 0.9 2.2 -0.1
v 0.9 2.2 -0.3
v 0.9 2.2 -0.4
v 0.9 2.2 -0.6
v 0.9 2.2 -0.7
v 0.9 2.2 -0.9
v 0.9 2.2 -1
v 0.1 2.1 0
v 0.1 2.1 -0.1
v 0.1 2.1 -0.3
v 0.1 2.1 -0.4
v 0.1 2.1 -0.6
v 0.1 2.1 -0.7
v 0.1 2.1 -0.9
v 0.1 2.1 -1
v 0.1 2.2 0
v 0.1 2.2 -0.1
v 0.1 2.2 -0.3
v 0.1 2.2 -0.4
v 0.1 2.2 -0.6
v 0.1 2.2 -0.7
v 0.1 2.2 -0.9
v 0.1 2.2 -1
v 1 2 0
v 1 2 -0.2
v 1 2 -0.5
v 1 2 -0.6
v 1 2 -0.8
v 1 2 -1
v 1 2.1 0
v 1 2.1 -0.1
v 1 2.1 -0.2
v 1 2.1 -0.3
v 1 2.1 -0.4
v 1 2.1 -0.5
v 1 2.1 -0.6
v 1 2.1 -0.7
v 1 2.1 -0.8
v 1 2.1 -0.9
v 1 2.1 -1
v 1 2.2 0
v 1 2.2 -0.1
v 1 2.2 -0.3
v 1 2.2 -0.4
v 1 2.2 -0.6
v 1 2.2 -0.7
v 1 2.2 -0.9
v 1 2.2 -1
v 0 2 0
v 0 2.1 0
v 0 2.2 0
v 0.1 2.1 0
v 0.1 2.2 0
v 0.2 2 0
v 0.2 2.1 0
v 0.8 2 0
v 0.8 2.1 0
v 0.9 2.1 0
v 0.9 2.2 0
v 1 2 0
v 1 2.1 0
v 1 2.2 0
v 0 2 -1
v 0 2.1 -1
v 0 2.2 -1
v 0.1 2.1 -1
v 0.1 2.2 -1
v 0.2 2 -1
v 0.2 2.1 -1
v 0.8 2 -1
v 0.8 2.1 -1
v 0.9 2.1 -1
v 0.9 2.2 -1
v 1 2 -1
v 1 2.1 -1
v 1 2.2 -1
v 0 2 0
v 0.2 2 0
v 0.8 2 0
v 1 2 0
v 0.1 2 -0.1
v 0.2 2 -0.1
v 0.3 2 -0.1
v 0.7 2 -0.1
v 0.8 2 -0.1
v 0.9 2 -0.1
v 0 2 -0.2
v 0.1 2 -0.2
v 0.2 2 -0.2
v 0.3 2 -0.2
v 0.7 2 -0.2
v 0.8 2 -0.2
v 0.9 2 -0.2
v 1 2 -0.2
v 0.1 2 -0.3
v 0.2 2 -0.3
v 0.3 2 -0.3
v 0.4 2 -0.3
v 0.6 2 -0.3
v 0.7 2 -0.3
v 0.8 2 -0.3
v 0.9 2 -0.3
v 0.3 2 -0.4
v 0.4 2 -0.4
v 0.6 2 -0.4
v 0.7 2 -0.4
v 0 2 -0.5
v 0.1 2 -0.5
v 0.9 2 -0.5
v 1 2 -0.5
v 0 2 -0.6
v 0.1 2 -0.6
v 0.3 2 -0.6
v 0.4 2 -0.6
v 0.6 2 -0.6
v 0.7 2 -0.6
v 0.9 2 -0.6
v 1 2 -0.6
v 0.1 2 -0.7
v 0.2 2 -0.7
v 0.3 2 -0.7
v 0.4 2 -0.7
v 0.6 2 -0.7
v 0.7 2 -0.7
v 0.8 2 -0.7
v 0.9 2 -0.7
v 0 2 -0.8
v 0.1 2 -0.8
v 0.2 2 -0.8
v 0.3 2 -0.8
v 0.7 2 -0.8
v 0.8 2 -0.8
v 0.9 2 -0.8
v 1 2 -0.8
v 0.1 2 -0.9
v 0.2 2 -0.9
v 0.3 2 -0.9
v 0.7 2 -0.9
v 0.8 2 -0.9
v 0.9 2 -0.9
v 0 2 -1
v 0.2 2 -1
v 0.8 2 -1
v 1 2 -1
v 0.1 2.1 0
v 0.2 2.1 0
v 0.8 2.1 0
v 0.9 2.1 0
v 0.1 2.1 -0.1
v 0.2 2.1 -0.1
v 0.3 2.1 -0.1
v 0.7 2.1 -0.1
v 0.8 2.1 -0.1
v 0.9 2.1 -0.1
v 0.2 2.1 -0.2
v 0.3 2.1 -0.2
v 0.7 2.1 -0.2
v 0.8 2.1 -0.2
v 0.1 2.1 -0.3
v 0.2 2.1 -0.3
v 0.3 2.1 -0.3
v 0.4 2.1 -0.3
v 0.6 2.1 -0.3
v 0.7 2.1 -0.3
v 0.8 2.1 -0.3
v 0.9 2.1 -0.3
v 0.1 2.1 -0.4
v 0.3 2.1 -0.4
v 0.4 2.1 -0.4
v 0.6 2.1 -0.4
v 0.7 2.1 -0.4
v 0.9 2.1 -0.4
v 0.1 2.1 -0.6
v 0.3 2.1 -0.6
v 0.4 2.1 -0.6
v 0.6 2.1 -0.6
v 0.7 2.1 -0.6
v 0.9 2.1 -0.6
v 0.1 2.1 -0.7
v 0.2 2.1 -0.7
v 0.3 2.1 -0.7
v 0.4 2.1 -0.7
v 0.6 2.1 -0.7
v 0.7 2.1 -0.7
v 0.8 2.1 -0.7
v 0.9 2.1 -0.7
v 0.2 2.1 -0.8
v 0.3 2.1 -0.8
v 0.7 2.1 -0.8
v 0.8 2.1 -0.8
v 0.1 2.1 -0.9
v 0.2 2.1 -0.9
v 0.3 2.1 -0.9
v 0.7 2.1 -0.9
v 0.8 2.1 -0.9
v 0.9 2.1 -0.9
v 0.1 2.1 -1
v 0.2 2.1 -1
v 0.8 2.1 -1
v 0.9 2.1 -1
v 0 2.2 0
v 0.1 2.2 0
v 0.9 2.2 0
v 1 2.2 0
v 0 2.2 -0.1
v 0.1 2.2 -0.1
v 0.9 2.2 -0.1
v 1 2.2 -0.1
v 0 2.2 -0.3
v 0.1 2.2 -0.3
v 0.9 2.2 -0.3
v 1 2.2 -0.3
v 0 2.2 -0.4
v 0.1 2.2 -0.4
v 0.9 2.2 -0.4
v 1 2.2 -0.4
v 0 2.2 -0.6
v 0.1 2.2 -0.6
v 0.9 2.2 -0.6
v 1 2.2 -0.6
v 0 2.2 -0.7
v 0.1 2.2 -0.7
v 0.9 2.2 -0.7
v 1 2.2 -0.7
v 0 2.2 -0.9
v 0.1 2.2 -0.9
v 0.9 2.2 -0.9
v 1 2.2 -0.9
v 0 2.2 -1
v 0.1 2.2 -1
v 0.9 2.2 -1
v 1 2.2 -1

# faces
f 7/4/1 2/4/1 1/4/1
f 8/4/1 2/4/1 7/4/1
f 9/3/1 3/3/1 2/3/1
f 9/4/1 2/4/1 8/4/1
f 10/3/1 3/3/1 9/3/1
f 11/3/1 3/3/1 10/3/1
f 12/2/1 4/2/1 3/2/1
f 12/3/1 3/3/1 11/3/1
f 13/3/1 5/3/1 4/3/1
f 13/2/1 4/2/1 12/2/1
f 14/3/1 5/3/1 13/3/1
f 15/4/1 6/4/1 5/4/1
f 15/3/1 5/3/1 14/3/1
f 16/4/1 6/4/1 15/4/1
f 17/4/1 6/4/1 16/4/1
f 18/5/1 8/5/1 7/5/1
f 19/1/1 9/1/1 8/1/1
f 19/5/1 8/5/1 18/5/1
f 19/1/1 10/1/1 9/1/1
f 20/5/1 11/5/1 10/5/1
f 20/1/1 10/1/1 19/1/1
f 21/1/1 12/1/1 11/1/1
f 21/5/1 11/5/1 20/5/1
f 21/1/1 13/1/1 12/1/1
f 22/5/1 14/5/1 13/5/1
f 22/1/1 13/1/1 21/1/1
f 23/1/1 16/1/1 15/1/1
f 23/5/1 14/5/1 22/5/1
f 23/1/1 15/1/1 14/1/1
f 24/5/1 17/5/1 16/5/1
f 24/1/1 16/1/1 23/1/1
f 25/5/1 17/5/1 24/5/1
f 34/5/1 27/5/1 26/5/1
f 35/1/1 28/1/1 27/1/1
f 35/5/1 27/5/1 34/5/1
f 36/5/1 29/5/1 28/5/1
f 36/1/1 28/1/1 35/1/1
f 37/1/1 30/1/1 29/1/1
f 37/5/1 29/5/1 36/5/1
f 38/5/1 31/5/1 30/5/1
f 38/1/1 30/1/1 37/1/1
f 39/1/1 32/1/1 31/1/1
f 39/5/1 31/5/1 38/5/1
f 40/5/1 33/5/1 32/5/1
f 40/1/1 32/1/1 39/1/1
f 41/5/1 33/5/1 40/5/1
f 42/5/2 43/5/2 50/5/2
f 43/1/2 44/1/2 51/1/2
f 50/5/2 43/5/2 51/5/2
f 44/5/2 45/5/2 52/5/2
f 51/1/2 44/1/2 52/1/2
f 45/1/2 46/1/2 53/1/2
f 52/5/2 45/5/2 53/5/2
f 46/5/2 47/5/2 54/5/2
f 53/1/2 46/1/2 54/1/2
f 47/1/2 48/1/2 55/1/2
f 54/5/2 47/5/2 55/5/2
f 48/5/2 49/5/2 56/5/2
f 55/1/2 48/1/2 56/1/2
f 56/5/2 49/5/2 57/5/2
f 58/4/2 59/4/2 64/4/2
f 64/4/2 59/4/2 65/4/2
f 59/3/2 60/3/2 66/3/2
f 65/4/2 59/4/2 66/4/2
f 66/3/2 60/3/2 67/3/2
f 67/3/2 60/3/2 68/3/2
f 60/2/2 61/2/2 69/2/2
f 68/3/2 60/3/2 69/3/2
f 61/3/2 62/3/2 70/3/2
f 69/2/2 61/2/2 70/2/2
f 70/3/2 62/3/2 71/3/2
f 62/4/2 63/4/2 72/4/2
f 71/3/2 62/3/2 72/3/2
f 72/4/2 63/4/2 73/4/2
f 73/4/2 63/4/2 74/4/2
f 64/5/2 65/5/2 75/5/2
f 65/1/2 66/1/2 76/1/2
f 75/5/2 65/5/2 76/5/2
f 66/1/2 67/1/2 76/1/2
f 67/5/2 68/5/2 77/5/2
f 76/1/2 67/1/2 77/1/2
f 68/1/2 69/1/2 78/1/2
f 77/5/2 68/5/2 78/5/2
f 69/1/2 70/1/2 78/1/2
f 70/5/2 71/5/2 79/5/2
f 78/1/2 70/1/2 79/1/2
f 72/1/2 73/1/2 80/1/2
f 79/5/2 71/5/2 80/5/2
f 71/1/2 72/1/2 80/1/2
f 73/5/2 74/5/2 81/5/2
f 80/1/2 73/1/2 81/1/2
f 81/5/2 74/5/2 82/5/2
f 86/4/3 84/4/3 83/4/3
f 86/5/3 85/5/3 84/5/3
f 87/5/3 85/5/3 86/5/3
f 88/4/3 86/4/3 83/4/3
f 89/4/3 86/4/3 88/4/3
f 90/3/3 89/3/3 88/3/3
f 91/3/3 89/3/3 90/3/3
f 92/4/3 91/4/3 90/4/3
f 94/4/3 92/4/3 90/4/3
f 95/5/3 93/5/3 92/5/3
f 95/4/3 92/4/3 94/4/3
f 96/5/3 93/5/3 95/5/3
f 97/4/4 98/4/4 100/4/4
f 98/5/4 99/5/4 100/5/4
f 100/5/4 99/5/4 101/5/4
f 97/4/4 100/4/4 102/4/4
f 102/4/4 100/4/4 103/4/4
f 102/3/4 103/3/4 104/3/4
f 104/3/4 103/3/4 105/3/4
f 104/4/4 105/4/4 106/4/4
f 104/4/4 106/4/4 108/4/4
f 106/5/4 107/5/4 109/5/4
f 108/4/4 106/4/4 109/4/4
f 109/5/4 107/5/4 110/5/4
f 115/4/5 112/4/5 111/4/5
f 116/3/5 113/3/5 112/3/5
f 116/4/5 112/4/5 115/4/5
f 117/3/5 113/3/5 116/3/5
f 118/3/5 113/3/5 117/3/5
f 119/4/5 114/4/5 113/4/5
f 119/3/5 113/3/5 118/3/5
f 120/4/5 114/4/5 119/4/5
f 121/4/5 115/4/5 111/4/5
f 122/3/5 116/3/5 115/3/5
f 122/4/5 115/4/5 121/4/5
f 122/3/5 117/3/5 116/3/5
f 123/3/5 117/3/5 122/3/5
f 124/4/5 118/4/5 117/4/5
f 124/3/5 117/3/5 123/3/5
f 125/3/5 120/3/5 119/3/5
f 125/4/5 118/4/5 124/4/5
f 125/3/5 119/3/5 118/3/5
f 126/3/5 120/3/5 125/3/5
f 127/4/5 114/4/5 120/4/5
f 127/3/5 120/3/5 126/3/5
f 128/4/5 114/4/5 127/4/5
f 129/3/5 123/3/5 122/3/5
f 129/3/5 122/3/5 121/3/5
f 130/4/5 124/4/5 123/4/5
f 130/3/5 123/3/5 129/3/5
f 131/3/5 125/3/5 124/3/5
f 131/4/5 124/4/5 130/4/5
f 132/3/5 125/3/5 131/3/5
f 133/3/5 125/3/5 132/3/5
f 134/4/5 126/4/5 125/4/5
f 134/3/5 125/3/5 133/3/5
f 135/3/5 128/3/5 127/3/5
f 135/4/5 126/4/5 134/4/5
f 135/3/5 127/3/5 126/3/5
f 136/3/5 128/3/5 135/3/5
f 137/3/5 132/3/5 131/3/5
f 137/3/5 131/3/5 130/3/5
f 138/4/5 133/4/5 132/4/5
f 138/3/5 132/3/5 137/3/5
f 139/3/5 134/3/5 133/3/5
f 139/4/5 133/4/5 138/4/5
f 139/3/5 135/3/5 134/3/5
f 140/3/5 135/3/5 139/3/5
f 141/3/5 129/3/5 121/3/5
f 142/4/5 130/4/5 129/4/5
f 142/3/5 129/3/5 141/3/5
f 143/3/5 128/3/5 136/3/5
f 143/4/5 136/4/5 135/4/5
f 144/3/5 128/3/5 143/3/5
f 145/2/5 142/2/5 141/2/5
f 146/4/5 130/4/5 142/4/5
f 146/2/5 142/2/5 145/2/5
f 147/3/5 137/3/5 130/3/5
f 147/4/5 138/4/5 137/4/5
f 148/3/5 139/3/5 138/3/5
f 148/4/5 138/4/5 147/4/5
f 149/4/5 140/4/5 139/4/5
f 149/3/5 139/3/5 148/3/5
f 150/3/5 135/3/5 140/3/5
f 150/4/5 140/4/5 149/4/5
f 151/4/5 143/4/5 135/4/5
f 151/2/5 144/2/5 143/2/5
f 152/2/5 144/2/5 151/2/5
f 153/4/5 130/4/5 146/4/5
f 153/3/5 146/3/5 145/3/5
f 154/3/5 147/3/5 130/3/5
f 154/4/5 130/4/5 153/4/5
f 154/3/5 148/3/5 147/3/5
f 155/3/5 148/3/5 154/3/5
f 156/4/5 149/4/5 148/4/5
f 156/3/5 148/3/5 155/3/5
f 157/3/5 150/3/5 149/3/5
f 157/4/5 149/4/5 156/4/5
f 158/3/5 135/3/5 150/3/5
f 158/3/5 150/3/5 157/3/5
f 159/4/5 151/4/5 135/4/5
f 159/3/5 135/3/5 158/3/5
f 160/3/5 152/3/5 151/3/5
f 160/4/5 151/4/5 159/4/5
f 161/3/5 153/3/5 145/3/5
f 161/3/5 154/3/5 153/3/5
f 162/3/5 154/3/5 161/3/5
f 163/4/5 155/4/5 154/4/5
f 163/3/5 154/3/5 162/3/5
f 164/3/5 158/3/5 157/3/5
f 164/4/5 155/4/5 163/4/5
f 164/3/5 157/3/5 156/3/5
f 164/3/5 156/3/5 155/3/5
f 165/4/5 159/4/5 158/4/5
f 165/3/5 158/3/5 164/3/5
f 166/3/5 160/3/5 159/3/5
f 166/4/5 159/4/5 165/4/5
f 167/3/5 152/3/5 160/3/5
f 167/3/5 160/3/5 166/3/5
f 168/3/5 152/3/5 167/3/5
f 169/4/5 162/4/5 161/4/5
f 169/3/5 164/3/5 163/3/5
f 169/3/5 163/3/5 162/3/5
f 170/3/5 164/3/5 169/3/5
f 171/4/5 165/4/5 164/4/5
f 171/3/5 164/3/5 170/3/5
f 172/3/5 166/3/5 165/3/5
f 172/4/5 165/4/5 171/4/5
f 172/3/5 167/3/5 166/3/5
f 173/3/5 167/3/5 172/3/5
f 174/4/5 168/4/5 167/4/5
f 174/3/5 167/3/5 173/3/5
f 175/4/5 169/4/5 161/4/5
f 175/4/5 170/4/5 169/4/5
f 176/3/5 173/3/5 172/3/5
f 176/4/5 170/4/5 175/4/5
f 176/3/5 171/3/5 170/3/5
f 176/3/5 172/3/5 171/3/5
f 177/4/5 174/4/5 173/4/5
f 177/3/5 173/3/5 176/3/5
f 178/4/5 168/4/5 174/4/5
f 178/4/5 174/4/5 177/4/5
f 179/4/6 180/4/6 183/4/6
f 180/3/6 181/3/6 184/3/6
f 183/4/6 180/4/6 184/4/6
f 184/3/6 181/3/6 185/3/6
f 185/3/6 181/3/6 186/3/6
f 181/4/6 182/4/6 187/4/6
f 186/3/6 181/3/6 187/3/6
f 187/4/6 182/4/6 188/4/6
f 183/3/6 184/3/6 189/3/6
f 184/3/6 185/3/6 189/3/6
f 185/4/6 186/4/6 190/4/6
f 189/3/6 185/3/6 190/3/6
f 187/3/6 188/3/6 191/3/6
f 190/4/6 186/4/6 191/4/6
f 186/3/6 187/3/6 191/3/6
f 191/3/6 188/3/6 192/3/6
f 183/3/6 189/3/6 193/3/6
f 189/4/6 190/4/6 194/4/6
f 193/3/6 189/3/6 194/3/6
f 190/3/6 191/3/6 195/3/6
f 194/4/6 190/4/6 195/4/6
f 195/3/6 191/3/6 196/3/6
f 196/3/6 191/3/6 197/3/6
f 191/4/6 192/4/6 198/4/6
f 197/3/6 191/3/6 198/3/6
f 192/3/6 188/3/6 199/3/6
f 198/4/6 192/4/6 199/4/6
f 199/3/6 188/3/6 200/3/6
f 193/4/6 194/4/6 201/4/6
f 194/3/6 195/3/6 202/3/6
f 195/3/6 196/3/6 202/3/6
f 196/4/6 197/4/6 203/4/6
f 202/3/6 196/3/6 203/3/6
f 197/3/6 198/3/6 204/3/6
f 203/4/6 197/4/6 204/4/6
f 198/3/6 199/3/6 204/3/6
f 204/3/6 199/3/6 205/3/6
f 199/4/6 200/4/6 206/4/6
f 201/4/6 194/4/6 207/4/6
f 202/4/6 203/4/6 208/4/6
f 194/3/6 202/3/6 208/3/6
f 203/3/6 204/3/6 209/3/6
f 208/4/6 203/4/6 209/4/6
f 204/4/6 205/4/6 210/4/6
f 209/3/6 204/3/6 210/3/6
f 205/3/6 199/3/6 211/3/6
f 210/4/6 205/4/6 211/4/6
f 199/4/6 206/4/6 212/4/6
f 207/4/6 194/4/6 213/4/6
f 194/3/6 208/3/6 214/3/6
f 213/4/6 194/4/6 214/4/6
f 208/3/6 209/3/6 214/3/6
f 214/3/6 209/3/6 215/3/6
f 209/4/6 210/4/6 216/4/6
f 215/3/6 209/3/6 216/3/6
f 210/3/6 211/3/6 217/3/6
f 216/4/6 210/4/6 217/4/6
f 211/3/6 199/3/6 218/3/6
f 217/3/6 211/3/6 218/3/6
f 199/4/6 212/4/6 219/4/6
f 218/3/6 199/3/6 219/3/6
f 219/4/6 212/4/6 220/4/6
f 214/4/6 215/4/6 221/4/6
f 213/3/6 214/3/6 221/3/6
f 217/3/6 218/3/6 222/3/6
f 221/4/6 215/4/6 222/4/6
f 216/3/6 217/3/6 222/3/6
f 215/3/6 216/3/6 222/3/6
f 218/4/6 219/4/6 223/4/6
f 222/3/6 218/3/6 223/3/6
f 219/3/6 220/3/6 224/3/6
f 223/4/6 219/4/6 224/4/6
f 213/3/6 221/3/6 225/3/6
f 221/3/6 222/3/6 225/3/6
f 225/3/6 222/3/6 226/3/6
f 222/4/6 223/4/6 227/4/6
f 226/3/6 222/3/6 227/3/6
f 223/3/6 224/3/6 228/3/6
f 227/4/6 223/4/6 228/4/6
f 224/3/6 220/3/6 229/3/6
f 228/3/6 224/3/6 229/3/6
f 229/3/6 220/3/6 230/3/6
f 225/4/6 226/4/6 231/4/6
f 227/3/6 228/3/6 232/3/6
f 231/4/6 226/4/6 232/4/6
f 226/3/6 227/3/6 232/3/6
f 228/3/6 229/3/6 232/3/6
f 229/4/6 230/4/6 233/4/6
f 232/3/6 229/3/6 233/3/6
f 233/4/6 230/4/6 234/4/6
f 235/5/6 236/5/6 239/5/6
f 239/5/6 236/5/6 240/5/6
f 237/5/6 238/5/6 241/5/6
f 241/5/6 238/5/6 242/5/6
f 239/1/6 240/1/6 243/1/6
f 243/1/6 240/1/6 244/1/6
f 241/1/6 242/1/6 245/1/6
f 245/1/6 242/1/6 246/1/6
f 243/5/6 244/5/6 247/5/6
f 247/5/6 244/5/6 248/5/6
f 245/5/6 246/5/6 249/5/6
f 249/5/6 246/5/6 250/5/6
f 247/1/6 248/1/6 251/1/6
f 251/1/6 248/1/6 252/1/6
f 249/1/6 250/1/6 253/1/6
f 253/1/6 250/1/6 254/1/6
f 251/5/6 252/5/6 255/5/6
f 255/5/6 252/5/6 256/5/6
f 253/5/6 254/5/6 257/5/6
f 257/5/6 254/5/6 258/5/6
f 255/1/6 256/1/6 259/1/6
f 259/1/6 256/1/6 260/1/6
f 257/1/6 258/1/6 261/1/6
f 261/1/6 258/1/6 262/1/6
f 259/5/6 260/5/6 263/5/6
f 263/5/6 260/5/6 264/5/6
f 261/5/6 262/5/6 265/5/6
f 265/5/6 262/5/6 266/5/6
