# MagicaVoxel @ Ephtracy

# group
o 

# material
mtllib 003_a.mtl
usemtl palette

# normals
vn -1 0 0
vn 1 0 0
vn 0 0 1
vn 0 0 -1
vn 0 -1 0
vn 0 1 0

# texcoords
vt 0.623047 0.5
vt 0.646484 0.5
vt 0.787109 0.5

# verts
v 0 2 0
v 0 2 -1
v 0 2.1 0
v 0 2.1 -0.1
v 0 2.2 -0.1
v 0 2.2 -0.2
v 0 2.3 -0.1
v 0 2.3 -0.2
v 0 2.3 -0.3
v 0 2.4 0
v 0 2.4 -0.1
v 0 2.4 -0.2
v 0 2.4 -0.3
v 0 2.4 -0.4
v 0 2.5 0
v 0 2.5 -0.1
v 0 2.5 -0.2
v 0 2.5 -0.3
v 0 2.5 -0.4
v 0 2.5 -0.5
v 0 2.6 -0.1
v 0 2.6 -0.2
v 0 2.6 -0.3
v 0 2.6 -0.5
v 0 2.6 -0.6
v 0 2.7 -0.2
v 0 2.7 -0.3
v 0 2.7 -0.4
v 0 2.7 -0.5
v 0 2.7 -0.6
v 0 2.7 -0.7
v 0 2.8 -0.3
v 0 2.8 -0.4
v 0 2.8 -0.5
v 0 2.8 -0.6
v 0 2.8 -0.7
v 0 2.8 -0.8
v 0 2.9 -0.4
v 0 2.9 -0.5
v 0 2.9 -0.6
v 0 2.9 -0.7
v 0 2.9 -0.8
v 0 2.9 -0.9
v 0 3 -0.5
v 0 3 -0.6
v 0 3 -0.8
v 0 3 -0.9
v 0 3 -1
v 0.9 2.1 0
v 0.9 2.1 -0.1
v 0.9 2.2 -0.1
v 0.9 2.2 -0.2
v 0.9 2.3 -0.1
v 0.9 2.3 -0.2
v 0.9 2.3 -0.3
v 0.9 2.4 0
v 0.9 2.4 -0.1
v 0.9 2.4 -0.2
v 0.9 2.4 -0.3
v 0.9 2.4 -0.4
v 0.9 2.5 0
v 0.9 2.5 -0.1
v 0.9 2.5 -0.2
v 0.9 2.5 -0.3
v 0.9 2.5 -0.4
v 0.9 2.5 -0.5
v 0.9 2.6 -0.1
v 0.9 2.6 -0.2
v 0.9 2.6 -0.3
v 0.9 2.6 -0.5
v 0.9 2.6 -0.6
v 0.9 2.7 -0.2
v 0.9 2.7 -0.3
v 0.9 2.7 -0.4
v 0.9 2.7 -0.5
v 0.9 2.7 -0.6
v 0.9 2.7 -0.7
v 0.9 2.8 -0.3
v 0.9 2.8 -0.4
v 0.9 2.8 -0.5
v 0.9 2.8 -0.6
v 0.9 2.8 -0.7
v 0.9 2.8 -0.8
v 0.9 2.9 -0.4
v 0.9 2.9 -0.5
v 0.9 2.9 -0.6
v 0.9 2.9 -0.7
v 0.9 2.9 -0.8
v 0.9 2.9 -0.9
v 0.9 3 -0.5
v 0.9 3 -0.6
v 0.9 3 -0.8
v 0.9 3 -0.9
v 0.1 2.1 0
v 0.1 2.1 -0.1
v 0.1 2.2 -0.1
v 0.1 2.2 -0.2
v 0.1 2.3 -0.1
v 0.1 2.3 -0.2
v 0.1 2.3 -0.3
v 0.1 2.4 0
v 0.1 2.4 -0.1
v 0.1 2.4 -0.2
v 0.1 2.4 -0.3
v 0.1 2.4 -0.4
v 0.1 2.5 0
v 0.1 2.5 -0.1
v 0.1 2.5 -0.2
v 0.1 2.5 -0.3
v 0.1 2.5 -0.4
v 0.1 2.5 -0.5
v 0.1 2.6 -0.1
v 0.1 2.6 -0.2
v 0.1 2.6 -0.3
v 0.1 2.6 -0.5
v 0.1 2.6 -0.6
v 0.1 2.7 -0.2
v 0.1 2.7 -0.3
v 0.1 2.7 -0.4
v 0.1 2.7 -0.5
v 0.1 2.7 -0.6
v 0.1 2.7 -0.7
v 0.1 2.8 -0.3
v 0.1 2.8 -0.4
v 0.1 2.8 -0.5
v 0.1 2.8 -0.6
v 0.1 2.8 -0.7
v 0.1 2.8 -0.8
v 0.1 2.9 -0.4
v 0.1 2.9 -0.5
v 0.1 2.9 -0.6
v 0.1 2.9 -0.7
v 0.1 2.9 -0.8
v 0.1 2.9 -0.9
v 0.1 3 -0.5
v 0.1 3 -0.6
v 0.1 3 -0.8
v 0.1 3 -0.9
v 1 2 0
v 1 2 -1
v 1 2.1 0
v 1 2.1 -0.1
v 1 2.2 -0.1
v 1 2.2 -0.2
v 1 2.3 -0.1
v 1 2.3 -0.2
v 1 2.3 -0.3
v 1 2.4 0
v 1 2.4 -0.1
v 1 2.4 -0.2
v 1 2.4 -0.3
v 1 2.4 -0.4
v 1 2.5 0
v 1 2.5 -0.1
v 1 2.5 -0.2
v 1 2.5 -0.3
v 1 2.5 -0.4
v 1 2.5 -0.5
v 1 2.6 -0.1
v 1 2.6 -0.2
v 1 2.6 -0.3
v 1 2.6 -0.5
v 1 2.6 -0.6
v 1 2.7 -0.2
v 1 2.7 -0.3
v 1 2.7 -0.4
v 1 2.7 -0.5
v 1 2.7 -0.6
v 1 2.7 -0.7
v 1 2.8 -0.3
v 1 2.8 -0.4
v 1 2.8 -0.5
v 1 2.8 -0.6
v 1 2.8 -0.7
v 1 2.8 -0.8
v 1 2.9 -0.4
v 1 2.9 -0.5
v 1 2.9 -0.6
v 1 2.9 -0.7
v 1 2.9 -0.8
v 1 2.9 -0.9
v 1 3 -0.5
v 1 3 -0.6
v 1 3 -0.8
v 1 3 -0.9
v 1 3 -1
v 0 2 0
v 0 2.1 0
v 0 2.4 0
v 0 2.5 0
v 0.1 2.1 0
v 0.1 2.4 0
v 0.1 2.5 0
v 0.9 2.1 0
v 0.9 2.4 0
v 0.9 2.5 0
v 1 2 0
v 1 2.1 0
v 1 2.4 0
v 1 2.5 0
v 0 2.5 -0.1
v 0 2.6 -0.1
v 0.1 2.1 -0.1
v 0.1 2.2 -0.1
v 0.1 2.5 -0.1
v 0.1 2.6 -0.1
v 0.9 2.1 -0.1
v 0.9 2.2 -0.1
v 0.9 2.5 -0.1
v 0.9 2.6 -0.1
v 1 2.5 -0.1
v 1 2.6 -0.1
v 0 2.3 -0.2
v 0 2.4 -0.2
v 0 2.6 -0.2
v 0 2.7 -0.2
v 0.1 2.2 -0.2
v 0.1 2.3 -0.2
v 0.1 2.4 -0.2
v 0.1 2.6 -0.2
v 0.1 2.7 -0.2
v 0.9 2.2 -0.2
v 0.9 2.3 -0.2
v 0.9 2.4 -0.2
v 0.9 2.6 -0.2
v 0.9 2.7 -0.2
v 1 2.3 -0.2
v 1 2.4 -0.2
v 1 2.6 -0.2
v 1 2.7 -0.2
v 0 2.4 -0.3
v 0 2.5 -0.3
v 0 2.7 -0.3
v 0 2.8 -0.3
v 0.1 2.3 -0.3
v 0.1 2.4 -0.3
v 0.1 2.5 -0.3
v 0.1 2.7 -0.3
v 0.1 2.8 -0.3
v 0.9 2.3 -0.3
v 0.9 2.4 -0.3
v 0.9 2.5 -0.3
v 0.9 2.7 -0.3
v 0.9 2.8 -0.3
v 1 2.4 -0.3
v 1 2.5 -0.3
v 1 2.7 -0.3
v 1 2.8 -0.3
v 0 2.5 -0.4
v 0 2.7 -0.4
v 0 2.8 -0.4
v 0 2.9 -0.4
v 0.1 2.4 -0.4
v 0.1 2.5 -0.4
v 0.1 2.7 -0.4
v 0.1 2.8 -0.4
v 0.1 2.9 -0.4
v 0.9 2.4 -0.4
v 0.9 2.5 -0.4
v 0.9 2.7 -0.4
v 0.9 2.8 -0.4
v 0.9 2.9 -0.4
v 1 2.5 -0.4
v 1 2.7 -0.4
v 1 2.8 -0.4
v 1 2.9 -0.4
v 0 2.9 -0.5
v 0 3 -0.5
v 0.1 2.5 -0.5
v 0.1 2.6 -0.5
v 0.1 2.9 -0.5
v 0.1 3 -0.5
v 0.9 2.5 -0.5
v 0.9 2.6 -0.5
v 0.9 2.9 -0.5
v 0.9 3 -0.5
v 1 2.9 -0.5
v 1 3 -0.5
v 0 2.7 -0.6
v 0 2.8 -0.6
v 0.1 2.6 -0.6
v 0.1 2.7 -0.6
v 0.1 2.8 -0.6
v 0.9 2.6 -0.6
v 0.9 2.7 -0.6
v 0.9 2.8 -0.6
v 1 2.7 -0.6
v 1 2.8 -0.6
v 0 2.8 -0.7
v 0 2.9 -0.7
v 0.1 2.7 -0.7
v 0.1 2.8 -0.7
v 0.1 2.9 -0.7
v 0.9 2.7 -0.7
v 0.9 2.8 -0.7
v 0.9 2.9 -0.7
v 1 2.8 -0.7
v 1 2.9 -0.7
v 0 2.9 -0.8
v 0 3 -0.8
v 0.1 2.8 -0.8
v 0.1 2.9 -0.8
v 0.1 3 -0.8
v 0.9 2.8 -0.8
v 0.9 2.9 -0.8
v 0.9 3 -0.8
v 1 2.9 -0.8
v 1 3 -0.8
v 0.1 2.9 -0.9
v 0.1 3 -0.9
v 0.9 2.9 -0.9
v 0.9 3 -0.9
v 0 2.3 -0.1
v 0 2.4 -0.1
v 0 2.5 -0.1
v 0.1 2.3 -0.1
v 0.1 2.4 -0.1
v 0.1 2.5 -0.1
v 0.9 2.3 -0.1
v 0.9 2.4 -0.1
v 0.9 2.5 -0.1
v 1 2.3 -0.1
v 1 2.4 -0.1
v 1 2.5 -0.1
v 0 2.5 -0.2
v 0 2.6 -0.2
v 0.1 2.5 -0.2
v 0.1 2.6 -0.2
v 0.9 2.5 -0.2
v 0.9 2.6 -0.2
v 1 2.5 -0.2
v 1 2.6 -0.2
v 0 2.6 -0.3
v 0 2.7 -0.3
v 0.1 2.6 -0.3
v 0.1 2.7 -0.3
v 0.9 2.6 -0.3
v 0.9 2.7 -0.3
v 1 2.6 -0.3
v 1 2.7 -0.3
v 0 2.7 -0.5
v 0 2.8 -0.5
v 0 2.9 -0.5
v 0.1 2.7 -0.5
v 0.1 2.8 -0.5
v 0.1 2.9 -0.5
v 0.9 2.7 -0.5
v 0.9 2.8 -0.5
v 0.9 2.9 -0.5
v 1 2.7 -0.5
v 1 2.8 -0.5
v 1 2.9 -0.5
v 0 2.9 -0.6
v 0 3 -0.6
v 0.1 2.9 -0.6
v 0.1 3 -0.6
v 0.9 2.9 -0.6
v 0.9 3 -0.6
v 1 2.9 -0.6
v 1 3 -0.6
v 0 2 -1
v 0 3 -1
v 1 2 -1
v 1 3 -1
v 0 2 0
v 1 2 0
v 0 2 -1
v 1 2 -1
v 0 2.5 -0.1
v 0.1 2.5 -0.1
v 0.9 2.5 -0.1
v 1 2.5 -0.1
v 0 2.5 -0.2
v 0.1 2.5 -0.2
v 0.9 2.5 -0.2
v 1 2.5 -0.2
v 0 2.6 -0.2
v 0.1 2.6 -0.2
v 0.9 2.6 -0.2
v 1 2.6 -0.2
v 0 2.6 -0.3
v 0.1 2.6 -0.3
v 0.9 2.6 -0.3
v 1 2.6 -0.3
v 0 2.7 -0.3
v 0.1 2.7 -0.3
v 0.9 2.7 -0.3
v 1 2.7 -0.3
v 0 2.7 -0.4
v 0.1 2.7 -0.4
v 0.9 2.7 -0.4
v 1 2.7 -0.4
v 0 2.9 -0.5
v 0.1 2.9 -0.5
v 0.9 2.9 -0.5
v 1 2.9 -0.5
v 0 2.9 -0.6
v 0.1 2.9 -0.6
v 0.9 2.9 -0.6
v 1 2.9 -0.6
v 0.1 2.1 0
v 0.9 2.1 0
v 0.1 2.1 -0.1
v 0.9 2.1 -0.1
v 0.1 2.2 -0.1
v 0.9 2.2 -0.1
v 0.1 2.2 -0.2
v 0.9 2.2 -0.2
v 0 2.3 -0.1
v 0.1 2.3 -0.1
v 0.9 2.3 -0.1
v 1 2.3 -0.1
v 0 2.3 -0.2
v 0.1 2.3 -0.2
v 0.9 2.3 -0.2
v 1 2.3 -0.2
v 0.1 2.3 -0.3
v 0.9 2.3 -0.3
v 0 2.4 -0.2
v 0.1 2.4 -0.2
v 0.9 2.4 -0.2
v 1 2.4 -0.2
v 0 2.4 -0.3
v 0.1 2.4 -0.3
v 0.9 2.4 -0.3
v 1 2.4 -0.3
v 0.1 2.4 -0.4
v 0.9 2.4 -0.4
v 0 2.5 0
v 0.1 2.5 0
v 0.9 2.5 0
v 1 2.5 0
v 0 2.5 -0.1
v 0.1 2.5 -0.1
v 0.9 2.5 -0.1
v 1 2.5 -0.1
v 0 2.5 -0.3
v 0.1 2.5 -0.3
v 0.9 2.5 -0.3
v 1 2.5 -0.3
v 0 2.5 -0.4
v 0.1 2.5 -0.4
v 0.9 2.5 -0.4
v 1 2.5 -0.4
v 0.1 2.5 -0.5
v 0.9 2.5 -0.5
v 0 2.6 -0.1
v 0.1 2.6 -0.1
v 0.9 2.6 -0.1
v 1 2.6 -0.1
v 0 2.6 -0.2
v 0.1 2.6 -0.2
v 0.9 2.6 -0.2
v 1 2.6 -0.2
v 0.1 2.6 -0.5
v 0.9 2.6 -0.5
v 0.1 2.6 -0.6
v 0.9 2.6 -0.6
v 0 2.7 -0.2
v 0.1 2.7 -0.2
v 0.9 2.7 -0.2
v 1 2.7 -0.2
v 0 2.7 -0.3
v 0.1 2.7 -0.3
v 0.9 2.7 -0.3
v 1 2.7 -0.3
v 0 2.7 -0.5
v 0.1 2.7 -0.5
v 0.9 2.7 -0.5
v 1 2.7 -0.5
v 0 2.7 -0.6
v 0.1 2.7 -0.6
v 0.9 2.7 -0.6
v 1 2.7 -0.6
v 0.1 2.7 -0.7
v 0.9 2.7 -0.7
v 0 2.8 -0.3
v 0.1 2.8 -0.3
v 0.9 2.8 -0.3
v 1 2.8 -0.3
v 0 2.8 -0.4
v 0.1 2.8 -0.4
v 0.9 2.8 -0.4
v 1 2.8 -0.4
v 0 2.8 -0.6
v 0.1 2.8 -0.6
v 0.9 2.8 -0.6
v 1 2.8 -0.6
v 0 2.8 -0.7
v 0.1 2.8 -0.7
v 0.9 2.8 -0.7
v 1 2.8 -0.7
v 0.1 2.8 -0.8
v 0.9 2.8 -0.8
v 0 2.9 -0.4
v 0.1 2.9 -0.4
v 0.9 2.9 -0.4
v 1 2.9 -0.4
v 0 2.9 -0.5
v 0.1 2.9 -0.5
v 0.9 2.9 -0.5
v 1 2.9 -0.5
v 0 2.9 -0.7
v 0.1 2.9 -0.7
v 0.9 2.9 -0.7
v 1 2.9 -0.7
v 0 2.9 -0.8
v 0.1 2.9 -0.8
v 0.9 2.9 -0.8
v 1 2.9 -0.8
v 0.1 2.9 -0.9
v 0.9 2.9 -0.9
v 0 3 -0.5
v 0.1 3 -0.5
v 0.9 3 -0.5
v 1 3 -0.5
v 0 3 -0.6
v 0.1 3 -0.6
v 0.9 3 -0.6
v 1 3 -0.6
v 0 3 -0.8
v 0.1 3 -0.8
v 0.9 3 -0.8
v 1 3 -0.8
v 0 3 -0.9
v 0.1 3 -0.9
v 0.9 3 -0.9
v 1 3 -0.9
v 0 3 -1
v 1 3 -1

# faces
f 3/1/1 2/1/1 1/1/1
f 4/1/1 2/1/1 3/1/1
f 5/3/1 4/3/1 3/3/1
f 5/1/1 2/1/1 4/1/1
f 6/1/1 2/1/1 5/1/1
f 7/3/1 5/3/1 3/3/1
f 7/3/1 6/3/1 5/3/1
f 8/1/1 2/1/1 6/1/1
f 8/3/1 6/3/1 7/3/1
f 9/1/1 2/1/1 8/1/1
f 10/3/1 7/3/1 3/3/1
f 11/3/1 7/3/1 10/3/1
f 12/3/1 9/3/1 8/3/1
f 13/1/1 2/1/1 9/1/1
f 13/3/1 9/3/1 12/3/1
f 14/1/1 2/1/1 13/1/1
f 15/2/1 11/2/1 10/2/1
f 16/2/1 11/2/1 15/2/1
f 18/3/1 14/3/1 13/3/1
f 19/1/1 2/1/1 14/1/1
f 19/3/1 14/3/1 18/3/1
f 20/1/1 2/1/1 19/1/1
f 21/2/1 17/2/1 16/2/1
f 22/2/1 17/2/1 21/2/1
f 24/1/1 2/1/1 20/1/1
f 24/3/1 20/3/1 19/3/1
f 25/1/1 2/1/1 24/1/1
f 26/2/1 23/2/1 22/2/1
f 27/2/1 23/2/1 26/2/1
f 28/3/1 25/3/1 24/3/1
f 28/3/1 24/3/1 19/3/1
f 29/3/1 25/3/1 28/3/1
f 30/1/1 2/1/1 25/1/1
f 30/3/1 25/3/1 29/3/1
f 31/1/1 2/1/1 30/1/1
f 32/2/1 28/2/1 27/2/1
f 33/3/1 29/3/1 28/3/1
f 33/2/1 28/2/1 32/2/1
f 34/3/1 29/3/1 33/3/1
f 35/3/1 31/3/1 30/3/1
f 36/1/1 2/1/1 31/1/1
f 36/3/1 31/3/1 35/3/1
f 37/1/1 2/1/1 36/1/1
f 38/2/1 34/2/1 33/2/1
f 39/2/1 34/2/1 38/2/1
f 41/3/1 37/3/1 36/3/1
f 42/1/1 2/1/1 37/1/1
f 42/3/1 37/3/1 41/3/1
f 43/1/1 2/1/1 42/1/1
f 44/2/1 40/2/1 39/2/1
f 45/2/1 40/2/1 44/2/1
f 46/3/1 43/3/1 42/3/1
f 47/1/1 2/1/1 43/1/1
f 47/3/1 43/3/1 46/3/1
f 48/1/1 2/1/1 47/1/1
f 51/3/1 50/3/1 49/3/1
f 53/3/1 51/3/1 49/3/1
f 53/3/1 52/3/1 51/3/1
f 54/3/1 52/3/1 53/3/1
f 56/3/1 53/3/1 49/3/1
f 57/3/1 53/3/1 56/3/1
f 58/3/1 55/3/1 54/3/1
f 59/3/1 55/3/1 58/3/1
f 61/2/1 57/2/1 56/2/1
f 62/2/1 57/2/1 61/2/1
f 64/3/1 60/3/1 59/3/1
f 65/3/1 60/3/1 64/3/1
f 67/2/1 63/2/1 62/2/1
f 68/2/1 63/2/1 67/2/1
f 70/3/1 66/3/1 65/3/1
f 72/2/1 69/2/1 68/2/1
f 73/2/1 69/2/1 72/2/1
f 74/3/1 71/3/1 70/3/1
f 74/3/1 70/3/1 65/3/1
f 75/3/1 71/3/1 74/3/1
f 76/3/1 71/3/1 75/3/1
f 78/2/1 74/2/1 73/2/1
f 79/3/1 75/3/1 74/3/1
f 79/2/1 74/2/1 78/2/1
f 80/3/1 75/3/1 79/3/1
f 81/3/1 77/3/1 76/3/1
f 82/3/1 77/3/1 81/3/1
f 84/2/1 80/2/1 79/2/1
f 85/2/1 80/2/1 84/2/1
f 87/3/1 83/3/1 82/3/1
f 88/3/1 83/3/1 87/3/1
f 90/2/1 86/2/1 85/2/1
f 91/2/1 86/2/1 90/2/1
f 92/3/1 89/3/1 88/3/1
f 93/3/1 89/3/1 92/3/1
f 94/3/2 95/3/2 96/3/2
f 94/3/2 96/3/2 98/3/2
f 96/3/2 97/3/2 98/3/2
f 98/3/2 97/3/2 99/3/2
f 94/3/2 98/3/2 101/3/2
f 101/3/2 98/3/2 102/3/2
f 99/3/2 100/3/2 103/3/2
f 103/3/2 100/3/2 104/3/2
f 101/2/2 102/2/2 106/2/2
f 106/2/2 102/2/2 107/2/2
f 104/3/2 105/3/2 109/3/2
f 109/3/2 105/3/2 110/3/2
f 107/2/2 108/2/2 112/2/2
f 112/2/2 108/2/2 113/2/2
f 110/3/2 111/3/2 115/3/2
f 113/2/2 114/2/2 117/2/2
f 117/2/2 114/2/2 118/2/2
f 115/3/2 116/3/2 119/3/2
f 110/3/2 115/3/2 119/3/2
f 119/3/2 116/3/2 120/3/2
f 120/3/2 116/3/2 121/3/2
f 118/2/2 119/2/2 123/2/2
f 119/3/2 120/3/2 124/3/2
f 123/2/2 119/2/2 124/2/2
f 124/3/2 120/3/2 125/3/2
f 121/3/2 122/3/2 126/3/2
f 126/3/2 122/3/2 127/3/2
f 124/2/2 125/2/2 129/2/2
f 129/2/2 125/2/2 130/2/2
f 127/3/2 128/3/2 132/3/2
f 132/3/2 128/3/2 133/3/2
f 130/2/2 131/2/2 135/2/2
f 135/2/2 131/2/2 136/2/2
f 133/3/2 134/3/2 137/3/2
f 137/3/2 134/3/2 138/3/2
f 139/1/2 140/1/2 141/1/2
f 141/1/2 140/1/2 142/1/2
f 141/3/2 142/3/2 143/3/2
f 142/1/2 140/1/2 143/1/2
f 143/1/2 140/1/2 144/1/2
f 141/3/2 143/3/2 145/3/2
f 143/3/2 144/3/2 145/3/2
f 144/1/2 140/1/2 146/1/2
f 145/3/2 144/3/2 146/3/2
f 146/1/2 140/1/2 147/1/2
f 141/3/2 145/3/2 148/3/2
f 148/3/2 145/3/2 149/3/2
f 146/3/2 147/3/2 150/3/2
f 147/1/2 140/1/2 151/1/2
f 150/3/2 147/3/2 151/3/2
f 151/1/2 140/1/2 152/1/2
f 148/2/2 149/2/2 153/2/2
f 153/2/2 149/2/2 154/2/2
f 151/3/2 152/3/2 156/3/2
f 152/1/2 140/1/2 157/1/2
f 156/3/2 152/3/2 157/3/2
f 157/1/2 140/1/2 158/1/2
f 154/2/2 155/2/2 159/2/2
f 159/2/2 155/2/2 160/2/2
f 158/1/2 140/1/2 162/1/2
f 157/3/2 158/3/2 162/3/2
f 162/1/2 140/1/2 163/1/2
f 160/2/2 161/2/2 164/2/2
f 164/2/2 161/2/2 165/2/2
f 162/3/2 163/3/2 166/3/2
f 157/3/2 162/3/2 166/3/2
f 166/3/2 163/3/2 167/3/2
f 163/1/2 140/1/2 168/1/2
f 167/3/2 163/3/2 168/3/2
f 168/1/2 140/1/2 169/1/2
f 165/2/2 166/2/2 170/2/2
f 166/3/2 167/3/2 171/3/2
f 170/2/2 166/2/2 171/2/2
f 171/3/2 167/3/2 172/3/2
f 168/3/2 169/3/2 173/3/2
f 169/1/2 140/1/2 174/1/2
f 173/3/2 169/3/2 174/3/2
f 174/1/2 140/1/2 175/1/2
f 171/2/2 172/2/2 176/2/2
f 176/2/2 172/2/2 177/2/2
f 174/3/2 175/3/2 179/3/2
f 175/1/2 140/1/2 180/1/2
f 179/3/2 175/3/2 180/3/2
f 180/1/2 140/1/2 181/1/2
f 177/2/2 178/2/2 182/2/2
f 182/2/2 178/2/2 183/2/2
f 180/3/2 181/3/2 184/3/2
f 181/1/2 140/1/2 185/1/2
f 184/3/2 181/3/2 185/3/2
f 185/1/2 140/1/2 186/1/2
f 191/1/3 188/1/3 187/1/3
f 191/3/3 189/3/3 188/3/3
f 192/2/3 190/2/3 189/2/3
f 192/3/3 189/3/3 191/3/3
f 193/2/3 190/2/3 192/2/3
f 194/1/3 191/1/3 187/1/3
f 197/1/3 194/1/3 187/1/3
f 198/3/3 195/3/3 194/3/3
f 198/1/3 194/1/3 197/1/3
f 199/2/3 196/2/3 195/2/3
f 199/3/3 195/3/3 198/3/3
f 200/2/3 196/2/3 199/2/3
f 205/2/3 202/2/3 201/2/3
f 206/2/3 202/2/3 205/2/3
f 207/1/3 204/1/3 203/1/3
f 208/1/3 204/1/3 207/1/3
f 211/2/3 210/2/3 209/2/3
f 212/2/3 210/2/3 211/2/3
f 218/3/3 214/3/3 213/3/3
f 219/3/3 214/3/3 218/3/3
f 220/2/3 216/2/3 215/2/3
f 221/2/3 216/2/3 220/2/3
f 222/1/3 218/1/3 217/1/3
f 223/1/3 218/1/3 222/1/3
f 227/3/3 224/3/3 223/3/3
f 228/3/3 224/3/3 227/3/3
f 229/2/3 226/2/3 225/2/3
f 230/2/3 226/2/3 229/2/3
f 236/3/3 232/3/3 231/3/3
f 237/3/3 232/3/3 236/3/3
f 238/2/3 234/2/3 233/2/3
f 239/2/3 234/2/3 238/2/3
f 240/1/3 236/1/3 235/1/3
f 241/1/3 236/1/3 240/1/3
f 245/3/3 242/3/3 241/3/3
f 246/3/3 242/3/3 245/3/3
f 247/2/3 244/2/3 243/2/3
f 248/2/3 244/2/3 247/2/3
f 254/3/3 250/3/3 249/3/3
f 255/3/3 250/3/3 254/3/3
f 256/2/3 252/2/3 251/2/3
f 257/2/3 252/2/3 256/2/3
f 258/1/3 254/1/3 253/1/3
f 259/1/3 254/1/3 258/1/3
f 263/3/3 260/3/3 259/3/3
f 264/3/3 260/3/3 263/3/3
f 265/2/3 262/2/3 261/2/3
f 266/2/3 262/2/3 265/2/3
f 271/2/3 268/2/3 267/2/3
f 272/2/3 268/2/3 271/2/3
f 273/1/3 270/1/3 269/1/3
f 274/1/3 270/1/3 273/1/3
f 277/2/3 276/2/3 275/2/3
f 278/2/3 276/2/3 277/2/3
f 282/3/3 280/3/3 279/3/3
f 283/3/3 280/3/3 282/3/3
f 284/1/3 282/1/3 281/1/3
f 285/1/3 282/1/3 284/1/3
f 287/3/3 286/3/3 285/3/3
f 288/3/3 286/3/3 287/3/3
f 292/3/3 290/3/3 289/3/3
f 293/3/3 290/3/3 292/3/3
f 294/1/3 292/1/3 291/1/3
f 295/1/3 292/1/3 294/1/3
f 297/3/3 296/3/3 295/3/3
f 298/3/3 296/3/3 297/3/3
f 302/3/3 300/3/3 299/3/3
f 303/3/3 300/3/3 302/3/3
f 304/1/3 302/1/3 301/1/3
f 305/1/3 302/1/3 304/1/3
f 307/3/3 306/3/3 305/3/3
f 308/3/3 306/3/3 307/3/3
f 311/1/3 310/1/3 309/1/3
f 312/1/3 310/1/3 311/1/3
f 313/3/4 314/3/4 316/3/4
f 314/2/4 315/2/4 317/2/4
f 316/3/4 314/3/4 317/3/4
f 317/2/4 315/2/4 318/2/4
f 319/3/4 320/3/4 322/3/4
f 320/2/4 321/2/4 323/2/4
f 322/3/4 320/3/4 323/3/4
f 323/2/4 321/2/4 324/2/4
f 325/2/4 326/2/4 327/2/4
f 327/2/4 326/2/4 328/2/4
f 329/2/4 330/2/4 331/2/4
f 331/2/4 330/2/4 332/2/4
f 333/2/4 334/2/4 335/2/4
f 335/2/4 334/2/4 336/2/4
f 337/2/4 338/2/4 339/2/4
f 339/2/4 338/2/4 340/2/4
f 341/3/4 342/3/4 344/3/4
f 342/2/4 343/2/4 345/2/4
f 344/3/4 342/3/4 345/3/4
f 345/2/4 343/2/4 346/2/4
f 347/3/4 348/3/4 350/3/4
f 348/2/4 349/2/4 351/2/4
f 350/3/4 348/3/4 351/3/4
f 351/2/4 349/2/4 352/2/4
f 353/2/4 354/2/4 355/2/4
f 355/2/4 354/2/4 356/2/4
f 357/2/4 358/2/4 359/2/4
f 359/2/4 358/2/4 360/2/4
f 361/1/4 362/1/4 363/1/4
f 363/1/4 362/1/4 364/1/4
f 367/1/5 366/1/5 365/1/5
f 368/1/5 366/1/5 367/1/5
f 373/2/5 370/2/5 369/2/5
f 374/2/5 370/2/5 373/2/5
f 375/2/5 372/2/5 371/2/5
f 376/2/5 372/2/5 375/2/5
f 381/2/5 378/2/5 377/2/5
f 382/2/5 378/2/5 381/2/5
f 383/2/5 380/2/5 379/2/5
f 384/2/5 380/2/5 383/2/5
f 389/2/5 386/2/5 385/2/5
f 390/2/5 386/2/5 389/2/5
f 391/2/5 388/2/5 387/2/5
f 392/2/5 388/2/5 391/2/5
f 397/2/5 394/2/5 393/2/5
f 398/2/5 394/2/5 397/2/5
f 399/2/5 396/2/5 395/2/5
f 400/2/5 396/2/5 399/2/5
f 401/1/6 402/1/6 403/1/6
f 403/1/6 402/1/6 404/1/6
f 405/1/6 406/1/6 407/1/6
f 407/1/6 406/1/6 408/1/6
f 409/3/6 410/3/6 413/3/6
f 413/3/6 410/3/6 414/3/6
f 411/3/6 412/3/6 415/3/6
f 415/3/6 412/3/6 416/3/6
f 414/1/6 415/1/6 417/1/6
f 417/1/6 415/1/6 418/1/6
f 419/3/6 420/3/6 423/3/6
f 423/3/6 420/3/6 424/3/6
f 421/3/6 422/3/6 425/3/6
f 425/3/6 422/3/6 426/3/6
f 424/1/6 425/1/6 427/1/6
f 427/1/6 425/1/6 428/1/6
f 429/2/6 430/2/6 433/2/6
f 433/2/6 430/2/6 434/2/6
f 431/2/6 432/2/6 435/2/6
f 435/2/6 432/2/6 436/2/6
f 437/3/6 438/3/6 441/3/6
f 441/3/6 438/3/6 442/3/6
f 439/3/6 440/3/6 443/3/6
f 443/3/6 440/3/6 444/3/6
f 442/1/6 443/1/6 445/1/6
f 445/1/6 443/1/6 446/1/6
f 447/2/6 448/2/6 451/2/6
f 451/2/6 448/2/6 452/2/6
f 449/2/6 450/2/6 453/2/6
f 453/2/6 450/2/6 454/2/6
f 455/1/6 456/1/6 457/1/6
f 457/1/6 456/1/6 458/1/6
f 459/2/6 460/2/6 463/2/6
f 463/2/6 460/2/6 464/2/6
f 461/2/6 462/2/6 465/2/6
f 465/2/6 462/2/6 466/2/6
f 467/3/6 468/3/6 471/3/6
f 471/3/6 468/3/6 472/3/6
f 469/3/6 470/3/6 473/3/6
f 473/3/6 470/3/6 474/3/6
f 472/1/6 473/1/6 475/1/6
f 475/1/6 473/1/6 476/1/6
f 477/2/6 478/2/6 481/2/6
f 481/2/6 478/2/6 482/2/6
f 479/2/6 480/2/6 483/2/6
f 483/2/6 480/2/6 484/2/6
f 485/3/6 486/3/6 489/3/6
f 489/3/6 486/3/6 490/3/6
f 487/3/6 488/3/6 491/3/6
f 491/3/6 488/3/6 492/3/6
f 490/1/6 491/1/6 493/1/6
f 493/1/6 491/1/6 494/1/6
f 495/2/6 496/2/6 499/2/6
f 499/2/6 496/2/6 500/2/6
f 497/2/6 498/2/6 501/2/6
f 501/2/6 498/2/6 502/2/6
f 503/3/6 504/3/6 507/3/6
f 507/3/6 504/3/6 508/3/6
f 505/3/6 506/3/6 509/3/6
f 509/3/6 506/3/6 510/3/6
f 508/1/6 509/1/6 511/1/6
f 511/1/6 509/1/6 512/1/6
f 513/2/6 514/2/6 517/2/6
f 517/2/6 514/2/6 518/2/6
f 515/2/6 516/2/6 519/2/6
f 519/2/6 516/2/6 520/2/6
f 521/3/6 522/3/6 525/3/6
f 525/3/6 522/3/6 526/3/6
f 523/3/6 524/3/6 527/3/6
f 527/3/6 524/3/6 528/3/6
f 525/1/6 526/1/6 529/1/6
f 526/1/6 527/1/6 529/1/6
f 527/1/6 528/1/6 529/1/6
f 529/1/6 528/1/6 530/1/6
